<svg xmlns="http://www.w3.org/2000/svg" width="32" height="32" viewBox="0 0 32 32"><g transform="translate(0 0.482)"><rect width="32" height="32" rx="16" transform="translate(0 -0.482)" fill="#ebebeb"/><path d="M96.186,642.362a6.144,6.144,0,0,0-6.186,6.1,5.969,5.969,0,0,0,.85,3.086,10.508,10.508,0,0,0,10.45,12.631,10.724,10.724,0,0,0,1.951-.175,6.26,6.26,0,0,0,2.924.723,6.14,6.14,0,0,0,6.186-6.1,5.9,5.9,0,0,0-.642-2.709,10.282,10.282,0,0,0,.246-2.254,10.6,10.6,0,0,0-10.673-10.515,11.059,11.059,0,0,0-1.822.151,6.166,6.166,0,0,0-3.284-.938Zm5.02,3.9a8.728,8.728,0,0,1,2.488.32,5.538,5.538,0,0,1,1.763.868,3.835,3.835,0,0,1,1.037,1.146,2.508,2.508,0,0,1,.333,1.2,1.424,1.424,0,0,1-.438,1.015,1.479,1.479,0,0,1-1.094.454,1.371,1.371,0,0,1-.921-.28,3.377,3.377,0,0,1-.634-.835,3.6,3.6,0,0,0-.954-1.169,3.048,3.048,0,0,0-1.784-.408,3.385,3.385,0,0,0-1.846.45,1.2,1.2,0,0,0-.658,1.006.916.916,0,0,0,.217.612,1.913,1.913,0,0,0,.634.478,4.529,4.529,0,0,0,.855.325c.3.081.793.2,1.475.355.868.181,1.66.391,2.359.607a7.794,7.794,0,0,1,1.822.82,3.645,3.645,0,0,1,1.206,1.252,4.192,4.192,0,0,1-.3,4.211A4.851,4.851,0,0,1,104.6,660.3a8.8,8.8,0,0,1-3.337.577,8.262,8.262,0,0,1-3.821-.791,5.052,5.052,0,0,1-1.76-1.539,3.3,3.3,0,0,1-.682-1.9,1.34,1.34,0,0,1,.445-.995,1.6,1.6,0,0,1,1.113-.408,1.406,1.406,0,0,1,.936.32,2.359,2.359,0,0,1,.623.9,5.36,5.36,0,0,0,.62,1.07,2.355,2.355,0,0,0,.89.682,3.727,3.727,0,0,0,1.548.274,3.778,3.778,0,0,0,2.144-.554,1.53,1.53,0,0,0,.793-1.311,1.273,1.273,0,0,0-.414-.995,2.856,2.856,0,0,0-1.142-.616c-.483-.151-1.141-.311-1.957-.48a15.778,15.778,0,0,1-2.8-.826,4.676,4.676,0,0,1-1.835-1.32,3.244,3.244,0,0,1-.688-2.109,3.388,3.388,0,0,1,.723-2.126,4.491,4.491,0,0,1,2.072-1.414,9.094,9.094,0,0,1,3.128-.489Z" transform="translate(-85.618 -637.979)" fill="#404040"/></g></svg>