<svg xmlns="http://www.w3.org/2000/svg" width="32.299" height="26.441" viewBox="0 0 32.299 26.441"><path d="M32.9,11.961a11.439,11.439,0,0,1-1.344.86,11.689,11.689,0,0,1,.054,1.4,21.5,21.5,0,0,1-6.933,15.8,20.009,20.009,0,0,1-11.985,3.923A20.2,20.2,0,0,1,2,30.878a11.918,11.918,0,0,0,1.988.161,13.258,13.258,0,0,0,8.223-2.848,6.7,6.7,0,0,1-6.234-4.676,8.821,8.821,0,0,0,1.236.107,5.67,5.67,0,0,0,1.666-.215,6.42,6.42,0,0,1-3.171-1.774A6.573,6.573,0,0,1,3.72,16.9V16.8a7.176,7.176,0,0,0,2.633.806,6.716,6.716,0,0,1-2.2-2.956,7.079,7.079,0,0,1-.43-2.365,6.5,6.5,0,0,1,.054-1.021A7.145,7.145,0,0,1,4.687,8.79,22.8,22.8,0,0,0,6.3,10.4c.269.269.591.484.86.752a21.946,21.946,0,0,0,5.535,3.225,4.212,4.212,0,0,0,.752.269,16.488,16.488,0,0,0,2.795.752,2.7,2.7,0,0,0,.645.107c.107,0,.161.054.269.054.43.054.806.107,1.236.161a7.313,7.313,0,0,1-.215-1.612,6.571,6.571,0,0,1,2.848-5.428.866.866,0,0,1,.376-.215.053.053,0,0,1,.054.054V8.467a6.748,6.748,0,0,1,3.44-.967,6.578,6.578,0,0,1,4.891,2.15c.43-.107.914-.215,1.344-.322a9.894,9.894,0,0,0,1.344-.484,13.1,13.1,0,0,0,1.5-.752,6.851,6.851,0,0,1-1.236,2.2A12.848,12.848,0,0,1,31.5,11.477c-.107.054-.215.161-.322.215h-.107v.054l.054-.054c.107,0,.215-.054.376-.054a12.8,12.8,0,0,0,1.4-.269,10.615,10.615,0,0,0,1.4-.43A13.309,13.309,0,0,0,32.9,11.961Z" transform="translate(-2 -7.5)" fill="#ebebeb"/></svg>