<?xml version="1.0" encoding="utf-8"?>
<!-- Generator: Adobe Illustrator 22.1.0, SVG Export Plug-In . SVG Version: 6.00 Build 0)  -->
<svg version="1.1" id="Layer_1" xmlns="http://www.w3.org/2000/svg" xmlns:xlink="http://www.w3.org/1999/xlink" x="0px" y="0px"
	 viewBox="0 0 20 20" style="enable-background:new 0 0 20 20;" xml:space="preserve">
<style type="text/css">
	.st0{fill:#D8B600;}
</style>
<g>
	<path class="st0" d="M19.4,7.8l-9.1-6.2c-0.1-0.1-0.2-0.2-0.3-0.2c-0.1,0-0.3,0.1-0.4,0.1L0.7,7.7C0.5,7.9,0.5,8,0.4,8.2
		c0,0.2,0,0.3,0.1,0.5c0.1,0.1,0.2,0.2,0.6,0.2c0.1,0,0.3-0.1,0.4-0.1l8.5-6l8.5,5.9c0.2,0.1,0.3,0.2,0.4,0.2c0.1,0,0.3-0.1,0.5-0.3
		c0.1-0.1,0.2-0.3,0.2-0.5C19.6,8.1,19.5,7.9,19.4,7.8z"/>
	<path class="st0" d="M16.9,9.4c-0.4,0-0.6,0.4-0.7,0.6v7.2h-3.6l0-3.9c-0.1-0.8-0.4-1.5-0.9-1.8c-0.5-0.5-1.2-0.7-1.7-0.7l-0.2,0
		c-1.3,0.1-2.4,1.1-2.5,2.5v3.9H3.7V9.9c0-0.1-0.1-0.2-0.2-0.4c-0.1,0-0.2,0-0.5,0c-0.3,0-0.5,0.4-0.6,0.6V18c0,0.4,0.4,0.6,0.7,0.6
		h5c0.3,0,0.6-0.2,0.7-0.6v-4.5c0-0.7,0.6-1.3,1.4-1.3c0.6,0,1.2,0.6,1.3,1.2l0,4.7c0,0.1,0,0.3,0.1,0.4c0.1,0.1,0.2,0.2,0.4,0.2h5
		c0.4,0,0.7-0.3,0.7-0.6l0-7.8C17.6,9.7,17.3,9.4,16.9,9.4z"/>
</g>
</svg>
