<?xml version="1.0" encoding="utf-8"?>
<!-- Generator: Adobe Illustrator 22.1.0, SVG Export Plug-In . SVG Version: 6.00 Build 0)  -->
<svg version="1.1" id="Layer_1" xmlns="http://www.w3.org/2000/svg" xmlns:xlink="http://www.w3.org/1999/xlink" x="0px" y="0px"
	 viewBox="0 0 20 20" style="enable-background:new 0 0 20 20;" xml:space="preserve">
<style type="text/css">
	.st0{fill:#FFFFFF;}
</style>
<g>
	<path class="st0" d="M16.1,8.7l-0.3,0V6.3c0-1.6-0.6-3.1-1.7-4.2C13,1,11.6,0.4,10,0.4C6.8,0.4,4.2,3,4.2,6.3C4.2,6.7,4.5,7,4.8,7
		s0.6-0.3,0.6-0.7C5.5,3.7,7.5,1.7,10,1.7c2.5,0,4.5,2.1,4.5,4.6v2.3H4c-0.6,0-1.1,0.5-1.1,1.2v6.6c0,1.8,1.4,3.2,3.1,3.2h8
		c1.7,0,3.1-1.4,3.1-3.2V9.8C17.1,9.2,16.6,8.8,16.1,8.7z M15.9,16.4l-0.1,0.4h0c-0.2,0.9-0.9,1.5-1.8,1.5H6.1c-1,0-1.8-0.9-1.8-1.9
		V10h11.6V16.4z"/>
	<path class="st0" d="M10,16.3c1.2,0,2.1-0.9,2.1-2.1s-0.9-2.1-2.1-2.1S7.9,13,7.9,14.2S8.8,16.3,10,16.3z M9.3,13.9v-0.2l0.1-0.1
		c0.2-0.2,0.5-0.2,0.6-0.2s0.4,0,0.6,0.2c0.2,0.2,0.2,0.5,0.2,0.6s0,0.4-0.2,0.6C10.4,15,10.1,15,10,15s-0.4,0-0.6-0.2
		c-0.2-0.2-0.2-0.5-0.2-0.6C9.2,14.1,9.3,13.9,9.3,13.9z"/>
</g>
</svg>
