<svg width="206" height="172" xmlns="http://www.w3.org/2000/svg" xmlns:xlink="http://www.w3.org/1999/xlink" overflow="hidden"><defs><clipPath id="clip0"><rect x="479" y="172" width="206" height="172"/></clipPath><clipPath id="clip1"><rect x="480" y="173" width="205" height="171"/></clipPath><clipPath id="clip2"><rect x="480" y="173" width="205" height="171"/></clipPath></defs><g clip-path="url(#clip0)" transform="translate(-479 -172)"><g clip-path="url(#clip1)"><g clip-path="url(#clip2)"><path d="M68.0894 157.96 65.2769 149.915 120.154 185.431 119.042 186.477 133.955 197.27 136.375 204.53 109.1 186.739 82.2175 204.53 84.4414 197.073 100.466 186.935 98.3732 186.15 103.213 182.749 98.5695 180.133 100.27 177.778Z" fill="#258E80" fill-rule="evenodd" transform="matrix(1.00304 0 0 1 431.272 127.111)"/><path d="M118.061 181.506 111.847 177.19 152.727 150.634 150.83 157.698 121.658 175.881 123.882 177.517Z" fill="#19443B" fill-rule="evenodd" transform="matrix(1.00304 0 0 1 431.272 127.111)"/><path d="M153.119 148.149 111.978 174.377 107.203 174.508 65.3423 147.625 72.4718 144.551 92.7482 157.109C88.9545 151.419 82.8716 147.037 75.2189 143.505 85.0955 145.598 94.4488 150.176 102.69 159.726 100.859 154.755 94.9066 149.915 87.1885 145.205 95.3645 147.494 103.017 151.419 109.493 159.006 115.51 151.942 123.097 147.364 132.189 145.009 123.751 149.391 118.192 154.428 115.575 159.922 122.77 151.746 131.862 146.383 142.654 143.505 134.805 147.494 129.376 151.746 126.891 156.259L145.794 144.224 153.119 148.149 153.119 148.149Z" fill="#19443B" fill-rule="evenodd" transform="matrix(1.00304 0 0 1 431.272 127.111)"/><path d="M75.1535 142.458C72.1447 133.563 79.6666 119.304 103.737 96.5418 121.331 113.744 135.132 130.161 131.666 142.589 128.592 130.227 117.145 117.538 103.279 104.718 89.8702 116.949 79.7974 129.442 75.1535 142.458L75.1535 142.458Z" fill="#19443B" fill-rule="evenodd" transform="matrix(1.00304 0 0 1 431.272 127.111)"/><path d="M112.436 92.2903C112.436 94.0604 111.001 95.4953 109.231 95.4953 107.461 95.4953 106.026 94.0604 106.026 92.2903 106.026 90.5202 107.461 89.0853 109.231 89.0853 111.001 89.0853 112.436 90.5202 112.436 92.2903Z" fill="#258E80" fill-rule="evenodd" transform="matrix(1.00304 0 0 1 431.272 127.111)"/><path d="M111.651 86.2074C111.651 87.544 110.567 88.6275 109.231 88.6275 107.894 88.6275 106.811 87.544 106.811 86.2074 106.811 84.8708 107.894 83.7873 109.231 83.7873 110.567 83.7873 111.651 84.8708 111.651 86.2074Z" fill="#258E80" fill-rule="evenodd" transform="matrix(1.00304 0 0 1 431.272 127.111)"/><path d="M116.753 78.4239C115.51 81.171 112.763 83.0678 109.493 83.0678 105.11 83.0678 101.513 79.4704 101.513 75.0881 101.513 71.8831 103.41 69.0706 106.157 67.8278 104.456 69.2014 103.344 71.3598 103.344 73.7145 103.344 77.9006 106.68 81.2364 110.866 81.2364 113.221 81.2364 115.379 80.1245 116.753 78.4239L116.753 78.4239Z" fill="#258E80" fill-rule="evenodd" transform="matrix(1.00304 0 0 1 431.272 127.111)"/><path d="M85.6841 142.458C82.6754 133.563 90.1973 119.304 114.267 96.5418 131.927 113.744 145.663 130.161 142.196 142.589 139.122 130.227 127.676 117.538 113.875 104.718 100.401 116.949 90.3281 129.442 85.6841 142.458L85.6841 142.458Z" fill="#258E80" fill-rule="evenodd" transform="matrix(1.00304 0 0 1 431.272 127.111)"/><text fill="#19443B" font-family="Berlin Sans FB,Berlin Sans FB_MSFontService,sans-serif" font-weight="400" font-size="435" transform="matrix(0.0656066 0 0 0.0654077 576.394 322)">QURAN<tspan fill="#258E80" font-family="Arial,Arial_MSFontService,sans-serif" font-weight="700" font-size="174" x="557" y="-336.352">ACADEMY</tspan></text></g></g></g></svg>