<svg width="587" height="458" xmlns="http://www.w3.org/2000/svg" xmlns:xlink="http://www.w3.org/1999/xlink" overflow="hidden"><defs><clipPath id="clip0"><rect x="336" y="94" width="587" height="458"/></clipPath><clipPath id="clip1"><rect x="337" y="94" width="585" height="457"/></clipPath><clipPath id="clip2"><rect x="337" y="94" width="585" height="457"/></clipPath></defs><g clip-path="url(#clip0)" transform="translate(-336 -94)"><g clip-path="url(#clip1)"><g clip-path="url(#clip2)"><path d="M181.97 422.15 174.454 400.649 321.113 495.567 318.142 498.364 357.997 527.206 364.464 546.609 291.572 499.063 219.728 546.609 225.671 526.682 268.498 499.587 262.904 497.49 275.839 488.4 263.428 481.408 267.973 475.115Z" fill="#258E80" fill-rule="evenodd" transform="matrix(1.07103 0 0 1 197.947 -28.6384)"/><path d="M315.52 485.079 298.913 473.542 408.165 402.572 403.096 421.45 325.134 470.046 331.077 474.416Z" fill="#19443B" fill-rule="evenodd" transform="matrix(1.07103 0 0 1 197.947 -28.6384)"/><path d="M409.214 395.929 299.263 466.025 286.502 466.375 174.628 394.531 193.682 386.315 247.871 419.877C237.732 404.669 221.476 392.957 201.024 383.518 227.419 389.112 252.416 401.348 274.441 426.869 269.546 413.584 253.639 400.649 233.013 388.063 254.863 394.181 275.315 404.669 292.62 424.946 308.702 406.068 328.979 393.831 353.277 387.538 330.727 399.25 315.869 412.71 308.877 427.394 328.105 405.543 352.403 391.209 381.246 383.518 360.269 394.181 345.761 405.543 339.118 417.605L389.636 385.441 409.214 395.929 409.214 395.929Z" fill="#19443B" fill-rule="evenodd" transform="matrix(1.07103 0 0 1 197.947 -28.6384)"/><path d="M200.849 380.721C192.808 356.948 212.91 318.841 277.238 258.009 324.26 303.983 361.143 347.858 351.879 381.071 343.663 348.033 313.072 314.121 276.014 279.86 240.179 312.548 213.26 345.935 200.849 380.721L200.849 380.721Z" fill="#19443B" fill-rule="evenodd" transform="matrix(1.07103 0 0 1 197.947 -28.6384)"/><path d="M300.487 246.647C300.487 251.378 296.652 255.213 291.921 255.213 287.191 255.213 283.356 251.378 283.356 246.647 283.356 241.917 287.191 238.082 291.921 238.082 296.652 238.082 300.487 241.917 300.487 246.647Z" fill="#258E80" fill-rule="evenodd" transform="matrix(1.07103 0 0 1 197.947 -28.6384)"/><path d="M298.389 230.391C298.389 233.963 295.493 236.858 291.921 236.858 288.349 236.858 285.453 233.963 285.453 230.391 285.453 226.818 288.349 223.923 291.921 223.923 295.493 223.923 298.389 226.818 298.389 230.391Z" fill="#258E80" fill-rule="evenodd" transform="matrix(1.07103 0 0 1 197.947 -28.6384)"/><path d="M312.024 209.589C308.702 216.931 301.361 222 292.62 222 280.909 222 271.294 212.386 271.294 200.674 271.294 192.109 276.364 184.592 283.705 181.271 279.161 184.942 276.189 190.71 276.189 197.003 276.189 208.191 285.104 217.105 296.291 217.105 302.584 217.105 308.353 214.134 312.024 209.589L312.024 209.589Z" fill="#258E80" fill-rule="evenodd" transform="matrix(1.07103 0 0 1 197.947 -28.6384)"/><path d="M228.992 380.721C220.951 356.948 241.053 318.841 305.381 258.009 352.578 303.983 389.287 347.858 380.022 381.071 371.806 348.033 341.216 314.121 304.332 279.86 268.323 312.548 241.403 345.935 228.992 380.721L228.992 380.721Z" fill="#258E80" fill-rule="evenodd" transform="matrix(1.07103 0 0 1 197.947 -28.6384)"/><text fill="#19443B" font-family="Berlin Sans FB,Berlin Sans FB_MSFontService,sans-serif" font-weight="400" font-size="435" transform="matrix(0.187219 0 0 0.174803 612.075 493)">QURAN<tspan fill="#258E80" font-family="Arial,Arial_MSFontService,sans-serif" font-weight="700" font-size="174" x="557" y="-331.802">ACADEMY</tspan></text></g></g></g></svg>