<?xml version="1.0" encoding="utf-8"?>
<!-- Generator: Adobe Illustrator 22.1.0, SVG Export Plug-In . SVG Version: 6.00 Build 0)  -->
<svg version="1.1" id="Layer_1" xmlns="http://www.w3.org/2000/svg" xmlns:xlink="http://www.w3.org/1999/xlink" x="0px" y="0px"
	 viewBox="0 0 20 20" style="enable-background:new 0 0 20 20;" xml:space="preserve">
<style type="text/css">
	.st0{fill:#D8B600;}
</style>
<path class="st0" d="M10,19.6L10,19.6l-0.2-0.1l-9.1-3.3c-0.2,0-0.3-0.1-0.3-0.4V3.9c0-0.1,0.3-0.2,0.5-0.2h0.2l1.7,0.6V0.9l0,0
	l0-0.1C3,0.4,3.2,0.4,3.4,0.4l0.1,0.1l0.1,0L10,2.8l6.4-2.4h0.2c0.1,0,0.3,0.1,0.4,0.2c0.1,0.1,0.2,0.2,0.2,0.4v3.4l1.7-0.6h0.2
	c0.3,0,0.5,0.2,0.5,0.5v11.5c0,0.2,0,0.4-0.4,0.5l-9,3.3H10z M1.5,15.4l8.5,3.1l8.5-3.1V4.9l-1.4,0.5v8.7c0,0.2,0,0.4-0.4,0.5
	l-6.5,2.5c-0.1,0-0.2,0.1-0.2,0.1l-0.1-0.1l-0.1,0l-6.6-2.5c-0.3-0.1-0.3-0.3-0.3-0.5V5.4L1.5,4.9V15.4z M3.9,13.8l5.6,2.1v-2.1
	l-3.8-1.5c-0.1-0.1-0.2-0.1-0.3-0.3c-0.1-0.1,0-0.3,0-0.4c0.1-0.3,0.3-0.3,0.5-0.3l0.1,0.1l0.1,0l3.3,1.3v-2.2L5.7,8.8
	C5.5,8.7,5.2,8.5,5.4,8.1c0.1-0.3,0.3-0.3,0.5-0.3L6,7.9l0.1,0l3.3,1.3V7L5.6,5.5C5.5,5.4,5.2,5.2,5.4,4.8c0.1-0.3,0.3-0.3,0.5-0.3
	L6,4.6l0.1,0l3.3,1.3V3.8L3.9,1.7V13.8z M14,11.2c0.2,0,0.4,0,0.5,0.4c0,0.1,0,0.3,0,0.3c-0.1,0.1-0.2,0.3-0.3,0.3l-3.7,1.5v2.1
	l5.5-2.1v-12l-5.5,2.1V6l3.3-1.3c0.1,0,0.2-0.1,0.2-0.1c0,0,0,0,0,0c0.1,0,0.3,0.1,0.5,0.4c0.1,0.3,0,0.5-0.3,0.6l-3.8,1.5v2.2
	L13.8,8C13.9,8,14,7.9,14,7.9c0,0,0,0,0,0c0.1,0,0.3,0.1,0.5,0.4c0.1,0.3,0,0.5-0.3,0.6l-3.8,1.5v2.2l3.3-1.3
	C13.9,11.3,14,11.2,14,11.2L14,11.2z"/>
</svg>
