<?xml version="1.0" encoding="utf-8"?>
<!-- Generator: Adobe Illustrator 22.1.0, SVG Export Plug-In . SVG Version: 6.00 Build 0)  -->
<svg version="1.1" id="Layer_1" xmlns="http://www.w3.org/2000/svg" xmlns:xlink="http://www.w3.org/1999/xlink" x="0px" y="0px"
	 viewBox="0 0 20 20" style="enable-background:new 0 0 20 20;" xml:space="preserve">
<style type="text/css">
	.st0{fill:#D8B600;}
</style>
<path class="st0" d="M1.1,17c-0.4,0-0.7-0.3-0.7-0.7V3.6c0-0.4,0.3-0.7,0.7-0.7h17.8c0.4,0,0.7,0.3,0.7,0.7v12.7
	c0,0.4-0.3,0.7-0.7,0.7H1.1z M2.4,15.6h15.1l-5.5-5.5l-1.7,1.6c-0.1,0.1-0.3,0.2-0.4,0.2c-0.1,0-0.3-0.1-0.4-0.2l-1.8-1.5L2.4,15.6z
	 M13.2,9.3l5,5V4.9L13.2,9.3z M1.8,14.3l5-5l-5-4.4V14.3z M10,10.3l6.9-6H3.1L10,10.3z"/>
</svg>
