<svg xmlns="http://www.w3.org/2000/svg" xmlns:xlink="http://www.w3.org/1999/xlink" viewBox="0 0 589.7 373.44"><defs><style>.cls-1{fill:none;}.cls-2{isolation:isolate;}.cls-3,.cls-6{fill:#b0beea;}.cls-4{fill:#8ca3ea;}.cls-5{fill:#d0def2;}.cls-6{mix-blend-mode:multiply;}.cls-7{fill:#f5a784;}.cls-8{fill:#05004a;}.cls-9{fill:#39c;}.cls-10{fill:#2c88b5;}.cls-11{fill:#e0855c;}.cls-12{fill:#fff;}.cls-13{fill:#040038;}.cls-14{clip-path:url(#clip-path);}.cls-15{fill:#29aac9;}.cls-16{clip-path:url(#clip-path-2);}.cls-17{fill:#2f92c2;}.cls-18{fill:#011948;}.cls-19{fill:#3b2645;}.cls-20{fill:#f5a42a;}.cls-21{fill:#fed32c;}.cls-22{fill:#ffe47a;}</style><clipPath id="clip-path"><path class="cls-1" d="M109.67,248.94c0,1.32-1.23,1.6-2.21,2a29.77,29.77,0,0,1-20.91.78c-2.37-.8-4.57-1.22-7-1.84a2.2,2.2,0,0,1-.89-.41,2,2,0,0,1-.34-1.9,19.93,19.93,0,0,1,2.81-6.07,13.82,13.82,0,0,0,1.72-4.2c.87-4.07-.49-7.88-1.61-12.5-.09-.36-.18-.72-.26-1.06a52,52,0,0,1-1.38-7.19c0-.28,0-.53,0-.73v-.24a20.7,20.7,0,0,1,.24-4.2c.07-.37.15-.71.24-1.06,1.54-5.65,5.5-6.06,5.5-6.06l9.12,3.17a25.84,25.84,0,0,1,5,3.77c.31.28.64.58,1,.91q.77.76,1.59,1.68a13.62,13.62,0,0,1,2.65,4.4c.11.27.2.55.29.82a16.85,16.85,0,0,1,.46,2,15.1,15.1,0,0,1,.17,1.76A27.14,27.14,0,0,0,105,226c-.21,1.19-.51,2.44-.65,3.68a10.84,10.84,0,0,0-.07,2.34,35,35,0,0,0,4.65,15.07A4.16,4.16,0,0,1,109.67,248.94Z"/></clipPath><clipPath id="clip-path-2"><path class="cls-1" d="M89.67,175.39c-2.1,1.28-3.85,2.37-6.36,2.63-.53.06-.78.94-.14,1,2.59.4,5.12-1.11,7.12-2.6C90.91,176,90.36,175,89.67,175.39Z"/></clipPath></defs><g class="cls-2"><g id="Layer_2" data-name="Layer 2"><g id="Layer_1-2" data-name="Layer 1"><path class="cls-3" d="M581.51,361.76H397.7a18.25,18.25,0,0,1,2.76-6.69,35.58,35.58,0,0,1,2.65-3.62c1.77-2.2,3.76-4.3,5.59-6.34A90.76,90.76,0,0,0,417.16,334c1.77-2.71,3.41-5.49,5-8.33a176.68,176.68,0,0,0,8.21-17.52c2.36-5.76,4.59-11.7,8.48-16.56,4.95-6.18,12.12-10.06,18.41-14.86l1-.75c5.48-4.32,10.56-9.31,16.93-12.11,11.39-5,25.93-1.45,33.71,8.24,5.22,6.5,7.59,15.24,12.41,21.81a23.32,23.32,0,0,0,4.92,5.05,28.2,28.2,0,0,0,6.06,3.29c4.54,1.89,9.42,3.19,13.44,6a20.41,20.41,0,0,1,2.38,1.95,26,26,0,0,1,4.07,5,49.4,49.4,0,0,1,5.18,11.55c2.28,7.05,3.87,14.43,7.68,20.78a24.88,24.88,0,0,0,8,8.33c2.16,1.35,7.54,2.18,8.44,4.94A2.53,2.53,0,0,1,581.51,361.76Z"/><path class="cls-4" d="M547.81,347.27l-25.13,14.49H496.53c-4.37-11.27-.54-32.14,4.34-39.16,2.42-3.47,5.79-6.16,8.52-9.4,4.86-5.77,7.52-13.08,11.85-19.24l.18-.26c2.39-3.48,13.4-14.7,17.12-7.08,1.57,3.22-3.31,10.83-6.32,15.68-.76,1.23-1.4,2.28-1.79,3q-5.91,11.61-12.26,23c-2.51,4.52-4.91,10.67-1.26,14.33,1.52-6,3.19-12.24,7.38-16.76a37,37,0,0,1,8.58-6.27c2.16-1.28,10-7.29,15.17-9.38,1.85-.76,3.35-1,4.11-.34,1.21,1.06.86,3.15,0,5.3a27.89,27.89,0,0,1-4.05,6.5c-3.22,3.62-7.41,6.21-11,9.47a39,39,0,0,0-11.24,18.15,41,41,0,0,1,19.59-12.48c2.62-.75,6-1,7.52,1.24C555.2,341.35,551.25,345.29,547.81,347.27Z"/><path class="cls-5" d="M507,361.76H210.86a15.32,15.32,0,0,0,3-3.09c2.32-3.39-.23-4.34-.15-8.45.24-11.34,1.3-24.22,10.2-31.25,3.87-3.05,8.7-4.51,13.47-6.05s9.57-3.2,13.18-6.63c9.87-9.37,6.75-27.69,17.37-36.22,7.9-6.34,19.63-4.13,29-8,10.35-4.24,16.18-15,22-24.54S332.56,218,343.7,217c12.8-1.16,24.32,10.26,37.08,8.78,5.07-.58,10.29-3.18,15-1.28,7.34,3,7,13.35,10.9,20.26,4,7.14,12.53,10.28,20.52,12.08s16.53,3,22.92,8.12A27.72,27.72,0,0,1,458.19,276c5.43,12.65,5.25,29.26,14.83,39.57,6.89,7.43,17.7,10.22,24.57,17.66S506.17,351.46,507,361.76Z"/><path class="cls-3" d="M278.45,361.76H0c0-3.64,3.44-8.62,6.23-11.3,5-4.78,11.41-8.2,15.86-13.44a26.82,26.82,0,0,0,2.43-3.37c4-6.5,5-14.31,4.76-22.12a91.56,91.56,0,0,0-.84-9.42c-1.64-12-4.48-24.49-.73-36.11C33,249.45,52.82,238.27,70.9,241.57c25.4,4.65,41.57,32.54,67.4,34.09,11.8.7,23-4.42,34.14-8.08,9.37-3.09,19.33-5.21,29.21-4.23s19.7,5.48,25.08,13.32c7.5,10.95,5,25.49,9.91,37.65.22.54.46,1.09.71,1.61a35.22,35.22,0,0,0,15,15.71c6.43,3.49,14.14,5.24,19.27,10.28S278.24,354.49,278.45,361.76Z"/><path class="cls-4" d="M67.31,312.48a14.52,14.52,0,0,1-1.82,5.62c-.28.54-.59,1.08-.91,1.6s-.79,1.28-1.19,1.9c-1.82,2.81-3.72,5.72-4.14,9a32.73,32.73,0,0,0-.07,4.32c0,.55,0,1.08,0,1.62a10,10,0,0,1-.38,2.09c-1.28,4.14-5.9,6.51-7.35,10.59-.81,2.26-.54,4.74-.32,7.13a15.21,15.21,0,0,1-.66,5.37H42.85c-2.41-4.65-2.21-9.49-7.44-13.07-3-2.05-6.72-3.25-8.75-6.24-1.65-2.43-1.77-5.41-2-8.4,0-.46-.05-.93-.1-1.39,0-.29,0-.57-.07-.86a15.13,15.13,0,0,0-.8-3.73c-1.62-4.34-5.83-7.11-8.37-11a14.41,14.41,0,0,1-1.17-2.15c-.17-.38-.32-.77-.46-1.16a16.37,16.37,0,0,1,1.22-13.57,8.23,8.23,0,0,1,2-2.4,4.71,4.71,0,0,1,1.22-.68l.22-.07a5.52,5.52,0,0,1,3.82.4c4,1.86,5.3,6.49,7.06,10.77.09.23.19.46.29.68a21.43,21.43,0,0,0,.95,2,12.28,12.28,0,0,0,3,3.89c1.07.88,2.34,1.5,3.36,2.43,2,1.79,2.71,4.36,3.05,7.06.1.82.17,1.65.22,2.47s.07,1.38.11,2.06c.22,4.13,1.28,8.95,5.07,10.62-.25-3.25-.47-6.64.38-9.73a11.15,11.15,0,0,1,.62-1.76c.11-.26.23-.52.36-.77,1-1.9,2.55-3.47,3.61-5.34,1.48-2.58,2-5.56,2.76-8.44.13-.48.27-1,.43-1.44s.24-.71.37-1.06c1.4-3.58,4.81-7,8.57-6.2a3.8,3.8,0,0,1,.6.18,4.79,4.79,0,0,1,1.59.89A8,8,0,0,1,67.31,312.48Z"/><path class="cls-4" d="M436.76,351.84a30.51,30.51,0,0,1-3.83,1.37c-4,1.56-6.2,5.67-9.37,8.55h-6.32c-.25-.48-.48-1-.75-1.46a6.55,6.55,0,0,0-4.28-3.08c-2.1-.42-4.27.25-6.41.12a8.74,8.74,0,0,1-5.34-2.27,7.34,7.34,0,0,1-.9-.95,3.59,3.59,0,0,1-.9-1.94,1.71,1.71,0,0,1,1-1.76c1-.35,1.94.52,2.91.89a2.69,2.69,0,0,0,.54.14c1.38.26,2.87-.27,4.3-.48a9.47,9.47,0,0,1,8.69,3.39,30.33,30.33,0,0,1-2.55-6.39,10.25,10.25,0,0,1,.49-6.74c.59-1.2,1.48-2.23,2-3.44a16,16,0,0,0,1.07-3.75,17.67,17.67,0,0,1,.55-2.17,15.83,15.83,0,0,1,4.41-6.16c.67-.64,1.37-1.25,2.05-1.86a4.51,4.51,0,0,1,1.9-1.17c-.31,3.34-.61,6.68-.92,10a68,68,0,0,1-1.13,8.43c-.85,3.81-2.37,7.53-2.41,11.43,0,.36.07.82.42.91a6.41,6.41,0,0,1,3.39-4.07c1.19-.55,2.52-.73,3.7-1.31a24.41,24.41,0,0,0,3.17-2.22A11.54,11.54,0,0,1,437,344a2.15,2.15,0,0,1,1.64.19,1.91,1.91,0,0,1,.65,1A5.71,5.71,0,0,1,436.76,351.84Z"/><path class="cls-4" d="M240.73,329.63A31,31,0,0,1,235,345.77c-4.12,5.55-13.36,8.4-14,16h-4c-.71-5.48-3.35-8.72-7.51-12.7-2.25-2.17-4.45-4.86-3.48-8.11.2-.51,1-.83,1.36-.18a23.68,23.68,0,0,0,5.62,7.07,26.08,26.08,0,0,1,4,4.09c-.63-3.52-1.54-6.93-4-10.08a.72.72,0,0,1,1-1,19.5,19.5,0,0,1,5.9,10.26A41.2,41.2,0,0,1,229.29,337a.88.88,0,0,1,1.37,1.06c-2,3.77-4.86,7-7,10.69a21.9,21.9,0,0,0-2.24,5.25,34.86,34.86,0,0,1,5.35-4.67c3.69-2.75,6.6-5.49,8.67-9.64,1.66-3.34,2.51-7,4.19-10.32A.61.61,0,0,1,240.73,329.63Z"/><path class="cls-5" d="M65.49,318.1c-.28.54-.59,1.08-.91,1.6a29.36,29.36,0,0,0-5.11.18H59.4c-2.16,3.37-4.52,6.62-5.56,10.51-.49,1.8-.77,3.63-1.11,5.46,1.06.7,2.07-.1,4.23-.55a21.28,21.28,0,0,1,2.22-.34c0,.55,0,1.08,0,1.62a36.89,36.89,0,0,0-5,1.13c-.92.26-1.27.49-1.86.27-.16.68-.34,1.37-.56,2-.89,2.7-2,5.29-2.84,8a52.27,52.27,0,0,0-2,13.73H45a45.77,45.77,0,0,0-2.09-11.14c-1.73-4.71-4.65-8.82-7.4-13a4.26,4.26,0,0,1-1.9-.3c-1.43-.36-3.54-1.66-4.72-2.08a33.05,33.05,0,0,0-4.19-1.17c0-.46-.05-.93-.1-1.39a32,32,0,0,1,4.65,1.25,21.86,21.86,0,0,0,3.34,1.37,6.8,6.8,0,0,0,1.41-.06c-.58-1-1.16-1.9-1.69-2.88-2.37-4.39-4.12-9-6.24-13.46-2.31,0-5.45-2.17-7.35-2.76-1.5-.46-3-.84-4.53-1.18-.17-.38-.32-.77-.46-1.16.67.11,1.33.23,2,.37,2.94.61,6,2.41,8.93,2.77a3.3,3.3,0,0,0,.44,0c-.64-1.27-1.31-2.52-2.07-3.74a45.94,45.94,0,0,1-4.23-8.33c-.38-1-1-4.46-1.83-7.05a4.71,4.71,0,0,1,1.22-.68l.22-.07c1.47,3.13,2.2,7.94,2.86,9.4,1.54,3.39,3.74,6.4,5.58,9.62,1.24-1.44,1.55-4.36,2.32-6.22.13-.32.27-.63.41-.95a21.43,21.43,0,0,0,.95,2c-.7,1.68-1.36,3.39-2,5.17a11,11,0,0,1-.64,1.91c1.59,3.21,2.74,6.6,4.17,9.89a57.87,57.87,0,0,0,3.54,6.64c.72-.74.81-1.94,1.31-3.33a50.08,50.08,0,0,1,3.06-6.9c.1.82.17,1.65.22,2.47l-.21.43a66.63,66.63,0,0,0-2.76,7.45c-.13.4-.23,1.21-.44,1.83a79.75,79.75,0,0,1,6.73,12.21A41.73,41.73,0,0,1,45.81,358a51.73,51.73,0,0,1,.81-5.83c1-5.15,3.19-9.92,4.48-15-1.22-1.34-2.52-4.43-3.44-5.52a23.43,23.43,0,0,0-1.93-1.93,11.15,11.15,0,0,1,.62-1.76,21,21,0,0,1,5.06,6.28l.25.4c1.09-6.14,3.11-9.93,6.37-15.11l.3-.49a19.21,19.21,0,0,0-5.25-5.63c.13-.48.27-1,.43-1.44a20.67,20.67,0,0,1,3.4,2.8c.71.75,1.41,2.19,2.19,2.92a34.23,34.23,0,0,0,3.95-12.8,4.79,4.79,0,0,1,1.59.89,32.09,32.09,0,0,1-2.18,8.48,28.85,28.85,0,0,1-2.06,4,23,23,0,0,0,3.85-.21C64.67,318.06,65.08,318.07,65.49,318.1Z"/><path class="cls-5" d="M429.86,351a67.06,67.06,0,0,0-5.41,5,11,11,0,0,0-2.76,5.78H419c-.52-1.8-1.18-3.51-2.89-4.56a17.13,17.13,0,0,0-6.95-2.1c-.24,0-.34-.41-.06-.46a12.32,12.32,0,0,1,8.14,2,6,6,0,0,1,1.81,2,76.78,76.78,0,0,1-1.75-11c-.3-6.78,3.69-11.55,5.43-17.79a.07.07,0,0,1,.13,0c-.29,3-1.38,5.23-2.47,8A22.63,22.63,0,0,0,419.05,350c.43,3,1.38,6.14,1.93,9.25a8.57,8.57,0,0,1,1.35-2.8,18.4,18.4,0,0,1,7.13-5.91C429.78,350.35,430.16,350.75,429.86,351Z"/><path class="cls-6" d="M115.24,370.24c-8.8-1.43-18.48-.39-27.4-.38l-13.53,0c-4.54,0-9.36-.47-13.78.67a1,1,0,0,0,0,1.83c4.42,1.14,9.24.66,13.78.67H87.84c8.94,0,18.59,1.06,27.4-.37A1.28,1.28,0,0,0,115.24,370.24Z"/><path class="cls-6" d="M195,370.24c-8.8-1.43-18.48-.39-27.4-.38l-13.53,0c-4.54,0-9.36-.47-13.79.67a1,1,0,0,0,0,1.83c4.42,1.14,9.25.66,13.79.67h13.53c8.94,0,18.59,1.06,27.4-.37A1.28,1.28,0,0,0,195,370.24Z"/><path class="cls-6" d="M548.22,370.24c-17-1.43-35.66-.39-52.87-.38l-26.12,0c-8.76,0-18.07-.47-26.6.67-1.75.23-1.75,1.6,0,1.83,8.53,1.14,17.84.66,26.6.67h26.12c17.25,0,35.86,1.06,52.87-.37C550.55,372.49,550.55,370.44,548.22,370.24Z"/><path class="cls-6" d="M365.5,370.23c-19.87-1.41-41.7-.38-61.84-.37q-15.27,0-30.54,0c-10.24,0-21.14-.47-31.11.65-2,.23-2,1.58,0,1.81,10,1.11,20.87.64,31.11.65l30.54,0c20.17,0,41.94,1,61.84-.38C368.23,372.44,368.23,370.42,365.5,370.23Z"/><path class="cls-5" d="M43,247.86a.47.47,0,0,1-.31-.12c-.94-.83-1.87-1.71-2.75-2.6a.47.47,0,1,1,.66-.66c.87.88,1.78,1.74,2.71,2.55a.48.48,0,0,1,0,.67A.48.48,0,0,1,43,247.86Zm-5.28-5.34a.46.46,0,0,1-.35-.17c-.82-.95-1.62-1.94-2.38-2.95a.48.48,0,0,1,.1-.66.46.46,0,0,1,.65.1c.75,1,1.54,2,2.34,2.9a.48.48,0,0,1-.36.78Zm-4.51-6a.47.47,0,0,1-.39-.22c-.69-1.05-1.35-2.13-2-3.23a.47.47,0,0,1,.17-.64.46.46,0,0,1,.64.18c.62,1.08,1.27,2.15,1.94,3.18a.46.46,0,0,1-.13.65A.5.5,0,0,1,33.25,236.52Zm450.21-5a.48.48,0,0,1-.47-.42.49.49,0,0,1,.43-.52c1.07-.1,2.15-.21,3.22-.33a.47.47,0,1,1,.11.93l-3.24.34Zm7-.78a.47.47,0,0,1-.05-.94l3.71-.51a.48.48,0,0,1,.53.4.47.47,0,0,1-.39.53l-3.73.51ZM29.54,230a.48.48,0,0,1-.42-.26c-.55-1.13-1.08-2.29-1.56-3.45a.46.46,0,0,1,.25-.61.47.47,0,0,1,.62.25c.47,1.14,1,2.28,1.53,3.39a.46.46,0,0,1-.21.63A.54.54,0,0,1,29.54,230Zm468.32-.3a.45.45,0,0,1-.46-.39.46.46,0,0,1,.38-.54c1.23-.21,2.47-.42,3.69-.65a.48.48,0,0,1,.55.38.46.46,0,0,1-.38.54c-1.23.23-2.47.45-3.7.65Zm7.39-1.37a.47.47,0,0,1-.1-.93c1.22-.25,2.44-.52,3.66-.79a.46.46,0,0,1,.56.35.47.47,0,0,1-.35.56c-1.22.28-2.45.55-3.68.8Zm7.32-1.68a.48.48,0,0,1-.46-.35.47.47,0,0,1,.34-.57c1.21-.31,2.42-.63,3.62-1a.47.47,0,0,1,.58.33.46.46,0,0,1-.33.57c-1.2.34-2.42.66-3.64,1Zm7.23-2a.47.47,0,0,1-.13-.92c1.19-.36,2.38-.74,3.56-1.13a.47.47,0,0,1,.6.29.48.48,0,0,1-.3.6c-1.19.39-2.39.77-3.59,1.14A.34.34,0,0,1,519.8,224.63ZM26.65,223.06a.48.48,0,0,1-.45-.31c-.41-1.18-.8-2.39-1.15-3.6a.49.49,0,0,1,.33-.59.48.48,0,0,1,.58.33c.34,1.19.72,2.39,1.13,3.55a.47.47,0,0,1-.29.6A.39.39,0,0,1,26.65,223.06Zm500.28-.8a.47.47,0,0,1-.16-.92c1.17-.42,2.34-.87,3.5-1.33a.47.47,0,1,1,.34.88c-1.17.46-2.34.91-3.52,1.34A.45.45,0,0,1,526.93,222.26Zm7-2.78a.47.47,0,0,1-.43-.28.48.48,0,0,1,.24-.62q1.72-.74,3.42-1.53a.47.47,0,0,1,.39.85c-1.13.53-2.28,1-3.43,1.55A.63.63,0,0,1,533.91,219.48Zm6.8-3.18a.47.47,0,0,1-.42-.26.48.48,0,0,1,.21-.63c1.11-.56,2.21-1.15,3.3-1.75a.47.47,0,0,1,.64.19.46.46,0,0,1-.18.63c-1.1.61-2.21,1.2-3.34,1.77A.5.5,0,0,1,540.71,216.3Zm-516.14-.45a.47.47,0,0,1-.46-.37c-.28-1.22-.53-2.47-.74-3.7a.47.47,0,1,1,.92-.16c.21,1.22.46,2.45.73,3.65a.47.47,0,0,1-.35.57Zm522.72-3.18a.46.46,0,0,1-.4-.22.47.47,0,0,1,.16-.65c1.07-.64,2.13-1.29,3.18-2a.47.47,0,0,1,.65.14.48.48,0,0,1-.14.65c-1.06.68-2.13,1.34-3.21,2A.5.5,0,0,1,547.29,212.67Zm6.31-4.07a.46.46,0,0,1-.39-.21.47.47,0,0,1,.12-.65c1-.71,2-1.45,3-2.21a.47.47,0,0,1,.66.09.47.47,0,0,1-.09.66c-1,.76-2,1.51-3,2.23A.48.48,0,0,1,553.6,208.6Zm-530.31-.15a.47.47,0,0,1-.46-.42c-.15-1.24-.26-2.51-.34-3.76a.47.47,0,0,1,.44-.5.45.45,0,0,1,.49.44c.08,1.24.19,2.49.34,3.71a.48.48,0,0,1-.41.53ZM559.57,204a.43.43,0,0,1-.36-.17.46.46,0,0,1,.06-.66c1-.79,1.91-1.62,2.83-2.44a.46.46,0,0,1,.66,0,.47.47,0,0,1,0,.66c-.93.83-1.89,1.66-2.86,2.47A.47.47,0,0,1,559.57,204ZM22.82,201a.47.47,0,0,1-.47-.47v-.7c0-1,0-2.06.06-3.08a.46.46,0,0,1,.49-.45.47.47,0,0,1,.45.49c0,1-.07,2-.07,3v.69A.48.48,0,0,1,22.82,201Zm542.33-2a.47.47,0,0,1-.33-.14.46.46,0,0,1,0-.66c.89-.87,1.77-1.76,2.63-2.67a.47.47,0,1,1,.68.65c-.87.91-1.76,1.82-2.65,2.69A.46.46,0,0,1,565.15,199Zm5.16-5.46a.48.48,0,0,1-.36-.78c.82-.94,1.62-1.9,2.39-2.87a.46.46,0,0,1,.66-.07.47.47,0,0,1,.08.66c-.78,1-1.6,1.95-2.42,2.9A.44.44,0,0,1,570.31,193.55Zm-547.16-.1a.47.47,0,0,1-.47-.51c.12-1.26.28-2.52.47-3.75a.46.46,0,0,1,.53-.4.47.47,0,0,1,.39.54c-.18,1.22-.34,2.46-.46,3.7A.47.47,0,0,1,23.15,193.45ZM575,187.67a.46.46,0,0,1-.27-.09.47.47,0,0,1-.11-.65c.73-1,1.45-2,2.13-3.07a.47.47,0,0,1,.78.52c-.68,1-1.41,2.08-2.15,3.1A.45.45,0,0,1,575,187.67ZM24.28,186h-.1a.46.46,0,0,1-.36-.56c.25-1.23.55-2.46.87-3.68a.48.48,0,0,1,.58-.33.47.47,0,0,1,.33.58c-.32,1.19-.61,2.41-.86,3.63A.48.48,0,0,1,24.28,186Zm554.84-4.62a.44.44,0,0,1-.24-.07.47.47,0,0,1-.16-.64c.64-1.07,1.25-2.16,1.83-3.25a.47.47,0,0,1,.64-.19.45.45,0,0,1,.19.63c-.58,1.1-1.21,2.21-1.86,3.29A.45.45,0,0,1,579.12,181.41Zm-552.9-2.63-.14,0a.46.46,0,0,1-.3-.59c.39-1.19.83-2.39,1.29-3.56a.47.47,0,1,1,.87.35c-.45,1.15-.88,2.33-1.27,3.5A.48.48,0,0,1,26.22,178.78Zm556.44-4a.45.45,0,0,1-.2,0,.47.47,0,0,1-.23-.63c.53-1.12,1-2.27,1.51-3.41a.47.47,0,0,1,.87.36c-.48,1.15-1,2.31-1.53,3.46A.48.48,0,0,1,582.66,174.78ZM29,171.8a.35.35,0,0,1-.2-.05.46.46,0,0,1-.23-.62c.53-1.14,1.11-2.27,1.71-3.38a.47.47,0,0,1,.64-.18.46.46,0,0,1,.19.63c-.6,1.09-1.16,2.21-1.69,3.33A.47.47,0,0,1,29,171.8Zm556.51-4-.15,0a.48.48,0,0,1-.29-.6c.42-1.18.8-2.37,1.15-3.55a.47.47,0,1,1,.9.26c-.35,1.2-.74,2.41-1.16,3.6A.48.48,0,0,1,585.51,167.84ZM32.6,165.21a.45.45,0,0,1-.25-.07.47.47,0,0,1-.15-.65c.68-1.06,1.39-2.12,2.13-3.13a.45.45,0,0,1,.65-.1.47.47,0,0,1,.11.65c-.73,1-1.43,2-2.1,3.08A.44.44,0,0,1,32.6,165.21ZM377,164.47h-1.41a.48.48,0,0,1-.46-.48.46.46,0,0,1,.48-.46c1.24,0,2.49,0,3.74,0a.46.46,0,0,1,.48.46.48.48,0,0,1-.46.48Q378.17,164.47,377,164.47Zm-5.15-.14c-1.28-.07-2.55-.16-3.79-.27a.48.48,0,0,1-.43-.51.47.47,0,0,1,.51-.43c1.24.12,2.49.21,3.73.27a.49.49,0,0,1,.45.5A.47.47,0,0,1,371.83,164.33Zm11.26-.05a.47.47,0,0,1-.47-.44.48.48,0,0,1,.44-.5c1.24-.08,2.49-.18,3.73-.3a.47.47,0,0,1,.51.42.46.46,0,0,1-.42.51c-1.25.13-2.51.23-3.76.31Zm-18.74-.64h-.06c-1.25-.17-2.51-.36-3.73-.57a.47.47,0,1,1,.16-.92c1.21.21,2.45.39,3.69.56a.46.46,0,0,1,.4.52A.46.46,0,0,1,364.35,163.64Zm26.21-.11a.47.47,0,0,1-.06-.93c1.23-.17,2.47-.37,3.69-.59a.49.49,0,0,1,.55.38.48.48,0,0,1-.38.55c-1.23.22-2.49.41-3.73.59ZM357,162.37l-.1,0c-1.22-.26-2.46-.55-3.67-.86a.47.47,0,0,1,.23-.91c1.2.31,2.43.6,3.64.86a.47.47,0,0,1,.36.55A.49.49,0,0,1,357,162.37Zm41-.15a.47.47,0,0,1-.46-.37.48.48,0,0,1,.36-.56c1.22-.26,2.44-.55,3.64-.86a.47.47,0,1,1,.23.91c-1.21.31-2.44.61-3.67.87Zm189.66-1.58-.1,0a.46.46,0,0,1-.35-.56c.28-1.2.53-2.43.74-3.65a.47.47,0,1,1,.93.16c-.22,1.24-.47,2.48-.76,3.7A.47.47,0,0,1,587.62,160.64Zm-237.94-.15-.14,0c-1.2-.36-2.41-.76-3.59-1.17a.47.47,0,0,1,.31-.89c1.17.41,2.37.8,3.55,1.16a.47.47,0,0,1-.13.92Zm55.56-.13a.46.46,0,0,1-.45-.34.45.45,0,0,1,.31-.58c1.19-.36,2.39-.74,3.56-1.14a.47.47,0,0,1,.31.89c-1.19.4-2.4.79-3.6,1.15ZM37,159.15a.51.51,0,0,1-.31-.11.5.5,0,0,1-.06-.67c.82-1,1.67-1.91,2.53-2.82a.47.47,0,0,1,.66,0,.46.46,0,0,1,0,.66c-.85.89-1.69,1.82-2.48,2.78A.49.49,0,0,1,37,159.15ZM342.59,158a.57.57,0,0,1-.18,0c-1.16-.47-2.33-1-3.47-1.48a.46.46,0,0,1-.24-.62.47.47,0,0,1,.62-.23c1.13.51,2.29,1,3.44,1.46a.47.47,0,0,1-.17.9Zm69.76-.07a.46.46,0,0,1-.44-.3.47.47,0,0,1,.27-.61c.69-.26,1.39-.54,2.07-.82l1.39-.58a.47.47,0,0,1,.62.25.47.47,0,0,1-.25.61l-1.4.59c-.69.28-1.39.56-2.1.83A.45.45,0,0,1,412.35,157.94Zm6.91-2.94a.47.47,0,0,1-.43-.27.48.48,0,0,1,.23-.63c1.12-.51,2.24-1.06,3.37-1.63a.48.48,0,0,1,.63.21.47.47,0,0,1-.21.63c-1.13.57-2.27,1.12-3.39,1.65A.48.48,0,0,1,419.26,155Zm-83.52-.07a.5.5,0,0,1-.21-.05c-1.12-.57-2.25-1.16-3.34-1.78a.47.47,0,1,1,.46-.82c1.08.61,2.19,1.2,3.3,1.76a.47.47,0,0,1-.21.89Zm-293.53-1.2a.47.47,0,0,1-.32-.82c.9-.81,1.86-1.64,2.88-2.46a.47.47,0,1,1,.59.73c-1,.81-2,1.63-2.83,2.43A.49.49,0,0,1,42.21,153.73Zm546.7-.49h-.06a.48.48,0,0,1-.41-.52c.09-.8.17-1.6.23-2.4,0-.44.06-.88.08-1.32a.47.47,0,0,1,.49-.45.48.48,0,0,1,.45.49c0,.45-.05.9-.08,1.35-.06.81-.14,1.62-.23,2.43A.48.48,0,0,1,588.91,153.24ZM426,151.61a.49.49,0,0,1-.41-.24.47.47,0,0,1,.19-.64c1.1-.61,2.19-1.23,3.24-1.86a.45.45,0,0,1,.64.16.46.46,0,0,1-.16.64c-1.06.64-2.16,1.27-3.27,1.88A.46.46,0,0,1,426,151.61Zm-96.77-.36a.45.45,0,0,1-.25-.07c-1.08-.67-2.14-1.37-3.16-2.07a.47.47,0,0,1-.12-.65.46.46,0,0,1,.65-.12c1,.69,2.06,1.38,3.13,2a.47.47,0,0,1-.25.87ZM48,149a.5.5,0,0,1-.38-.19.48.48,0,0,1,.1-.66c1-.75,2-1.48,3.06-2.2a.47.47,0,1,1,.54.77c-1,.71-2,1.44-3,2.18A.42.42,0,0,1,48,149Zm384.37-1.25a.48.48,0,0,1-.39-.21.48.48,0,0,1,.13-.65c1.06-.7,2.09-1.41,3.08-2.13a.47.47,0,0,1,.65.11.45.45,0,0,1-.1.65c-1,.73-2,1.45-3.11,2.15A.5.5,0,0,1,432.4,147.74ZM323,147a.42.42,0,0,1-.28-.1c-1-.78-2-1.59-2.93-2.4a.46.46,0,0,1-.05-.66.48.48,0,0,1,.67,0c.91.8,1.88,1.6,2.88,2.37a.46.46,0,0,1,.08.66A.46.46,0,0,1,323,147Zm266.22-1.24a.47.47,0,0,1-.47-.45c0-1.22-.15-2.47-.3-3.71a.47.47,0,1,1,.93-.11c.16,1.26.26,2.53.31,3.78a.47.47,0,0,1-.45.49ZM54.18,144.67a.47.47,0,0,1-.39-.2.48.48,0,0,1,.13-.66L57,141.72a.47.47,0,0,1,.65.12.48.48,0,0,1-.13.66l-3.12,2.09A.42.42,0,0,1,54.18,144.67Zm384.3-1.35a.5.5,0,0,1-.37-.17.47.47,0,0,1,.07-.66c1-.8,1.94-1.62,2.83-2.43a.47.47,0,0,1,.67,0,.46.46,0,0,1,0,.66c-.9.83-1.87,1.66-2.87,2.47A.45.45,0,0,1,438.48,143.32ZM317.36,142a.43.43,0,0,1-.33-.14c-.9-.89-1.77-1.82-2.6-2.76a.46.46,0,0,1,.05-.66.47.47,0,0,1,.66,0c.81.93,1.66,1.84,2.55,2.72a.47.47,0,0,1-.33.8Zm-257-1.58a.46.46,0,0,1-.38-.2.48.48,0,0,1,.11-.66c1-.71,2-1.43,3-2.17a.47.47,0,1,1,.56.76c-1,.74-2,1.47-3.07,2.18A.46.46,0,0,1,60.4,140.46Zm527.93-2.17a.47.47,0,0,1-.46-.38c-.24-1.2-.53-2.42-.86-3.62a.47.47,0,0,1,.32-.58.47.47,0,0,1,.58.33c.34,1.22.64,2.46.88,3.69a.47.47,0,0,1-.37.55Zm-144.32,0a.45.45,0,0,1-.32-.13.47.47,0,0,1,0-.66c.88-.92,1.7-1.86,2.45-2.8a.47.47,0,0,1,.66-.07.46.46,0,0,1,.07.66c-.76.95-1.6,1.91-2.5,2.85A.45.45,0,0,1,444,138.25Zm-131.58-1.87a.47.47,0,0,1-.38-.19c-.74-1-1.46-2.05-2.14-3.12a.47.47,0,1,1,.79-.5c.67,1.05,1.38,2.08,2.11,3.06a.48.48,0,0,1-.1.66A.47.47,0,0,1,312.43,136.38Zm-246-.38a.45.45,0,0,1-.36-.18.47.47,0,0,1,.07-.66c.82-.65,1.6-1.31,2.33-1.94l.52-.47a.48.48,0,0,1,.67.05.46.46,0,0,1,0,.66l-.52.46c-.74.65-1.54,1.31-2.36,2A.48.48,0,0,1,66.44,136Zm382.27-3.61a.43.43,0,0,1-.27-.08.47.47,0,0,1-.12-.65l2.13-3.1a.47.47,0,0,1,.77.53l-2.13,3.1A.47.47,0,0,1,448.71,132.39ZM72.1,131.06a.45.45,0,0,1-.34-.15.46.46,0,0,1,0-.66c.92-.85,1.83-1.7,2.73-2.57a.46.46,0,0,1,.66,0,.47.47,0,0,1,0,.67c-.9.87-1.82,1.73-2.74,2.58A.47.47,0,0,1,72.1,131.06Zm514.23,0a.48.48,0,0,1-.45-.31c-.4-1.16-.86-2.33-1.35-3.48a.46.46,0,0,1,.25-.61.45.45,0,0,1,.61.24c.5,1.17,1,2.36,1.38,3.53a.46.46,0,0,1-.29.6Zm-277.92-1a.45.45,0,0,1-.41-.25c-.59-1.08-1.16-2.22-1.69-3.38a.47.47,0,0,1,.85-.39c.53,1.14,1.09,2.26,1.66,3.33a.45.45,0,0,1-.19.63A.43.43,0,0,1,308.41,130.05ZM453,126.2a.5.5,0,0,1-.26-.08.47.47,0,0,1-.12-.66c.71-1,1.43-2.06,2.16-3.08a.46.46,0,0,1,.65-.11.48.48,0,0,1,.11.66c-.72,1-1.44,2-2.15,3.07A.47.47,0,0,1,453,126.2Zm-375.45-.34a.47.47,0,0,1-.33-.14.48.48,0,0,1,0-.67c.88-.88,1.75-1.77,2.61-2.68a.47.47,0,0,1,.67,0,.46.46,0,0,1,0,.66c-.86.91-1.74,1.81-2.62,2.7A.51.51,0,0,1,77.51,125.86Zm505.87-1.72a.46.46,0,0,1-.42-.26c-.55-1.1-1.15-2.2-1.77-3.29a.47.47,0,0,1,.17-.64.48.48,0,0,1,.65.17c.63,1.1,1.23,2.22,1.79,3.34a.47.47,0,0,1-.21.63A.54.54,0,0,1,583.38,124.14Zm-278.12-.9a.46.46,0,0,1-.44-.3c-.46-1.14-.89-2.34-1.31-3.54a.47.47,0,0,1,.89-.31c.41,1.19.84,2.37,1.29,3.51a.47.47,0,0,1-.26.61ZM82.69,120.42a.43.43,0,0,1-.31-.13.45.45,0,0,1,0-.66c.84-.92,1.67-1.85,2.49-2.8a.47.47,0,1,1,.7.62c-.82,1-1.66,1.88-2.5,2.81A.48.48,0,0,1,82.69,120.42Zm374.62-.35A.49.49,0,0,1,457,120a.46.46,0,0,1-.1-.65c.74-1,1.49-2,2.25-3a.47.47,0,0,1,.66-.09.45.45,0,0,1,.09.65c-.76,1-1.5,2-2.24,3A.45.45,0,0,1,457.31,120.07Zm122.32-2.45a.46.46,0,0,1-.39-.21c-.68-1-1.39-2.07-2.12-3.08a.47.47,0,0,1,.76-.55c.74,1,1.46,2.07,2.15,3.12a.47.47,0,0,1-.14.65A.48.48,0,0,1,579.63,117.62Zm-276.82-1.48a.46.46,0,0,1-.45-.34c-.37-1.2-.71-2.41-1-3.63a.47.47,0,0,1,.9-.24c.33,1.21.67,2.41,1,3.6a.48.48,0,0,1-.32.59ZM87.62,114.75a.5.5,0,0,1-.3-.11.46.46,0,0,1-.06-.66c.8-1,1.58-1.93,2.36-2.91a.47.47,0,1,1,.73.58c-.78,1-1.57,2-2.37,2.93A.46.46,0,0,1,87.62,114.75Zm374.24-.65a.48.48,0,0,1-.29-.11.47.47,0,0,1-.07-.66c.78-1,1.58-2,2.4-2.9a.47.47,0,1,1,.71.61c-.81.95-1.6,1.91-2.38,2.88A.46.46,0,0,1,461.86,114.1Zm113.35-2.55a.46.46,0,0,1-.37-.18c-.77-1-1.59-1.91-2.42-2.84a.47.47,0,1,1,.7-.63c.84.94,1.67,1.91,2.45,2.88a.48.48,0,0,1-.36.77Zm-274.36-2.67a.47.47,0,0,1-.46-.36c-.3-1.21-.58-2.44-.86-3.66a.47.47,0,0,1,.35-.57.48.48,0,0,1,.57.36c.27,1.22.56,2.44.85,3.65a.46.46,0,0,1-.34.57Zm-208.57,0a.47.47,0,0,1-.28-.09.48.48,0,0,1-.1-.66c.75-1,1.49-2,2.22-3a.47.47,0,0,1,.65-.11.48.48,0,0,1,.11.66c-.73,1-1.47,2-2.23,3A.46.46,0,0,1,92.28,108.85Zm374.46-.46a.42.42,0,0,1-.31-.13.45.45,0,0,1,0-.66c.87-.95,1.74-1.87,2.6-2.73a.45.45,0,0,1,.66,0,.46.46,0,0,1,0,.66c-.85.85-1.72,1.76-2.58,2.7A.44.44,0,0,1,466.74,108.39Zm103.46-2.45a.43.43,0,0,1-.33-.14c-.88-.89-1.78-1.76-2.69-2.6a.46.46,0,0,1,0-.66.47.47,0,0,1,.66,0c.92.85,1.83,1.74,2.72,2.63a.47.47,0,0,1,0,.67A.46.46,0,0,1,570.2,105.94ZM472,103.07a.48.48,0,0,1-.35-.16.46.46,0,0,1,0-.66c.93-.86,1.89-1.7,2.84-2.49a.47.47,0,0,1,.66.06.46.46,0,0,1-.06.66c-.94.79-1.88,1.61-2.81,2.46A.48.48,0,0,1,472,103.07Zm-375.4-.33a.5.5,0,0,1-.26-.08.47.47,0,0,1-.13-.65c.7-1,1.39-2.08,2.06-3.13a.47.47,0,1,1,.79.5q-1,1.59-2.07,3.15A.46.46,0,0,1,96.64,102.74Zm202.53-1.19a.48.48,0,0,1-.46-.37l-.79-3.67a.47.47,0,0,1,.36-.56.47.47,0,0,1,.55.36l.8,3.67a.46.46,0,0,1-.36.56Zm265.52-.7a.51.51,0,0,1-.31-.11c-.94-.8-1.92-1.59-2.91-2.34a.47.47,0,1,1,.57-.74c1,.76,2,1.55,3,2.36a.47.47,0,0,1,.06.66A.49.49,0,0,1,564.69,100.85ZM477.8,98.26a.46.46,0,0,1-.37-.18.46.46,0,0,1,.09-.66c1-.72,1.94-1.41,2.92-2.07l.17-.12a.47.47,0,0,1,.65.14.48.48,0,0,1-.13.65l-.17.11c-1,.65-1.93,1.33-2.87,2A.52.52,0,0,1,477.8,98.26ZM100.68,96.41a.44.44,0,0,1-.24-.07.47.47,0,0,1-.16-.64q1-1.61,1.89-3.24a.48.48,0,0,1,.64-.18.47.47,0,0,1,.17.64c-.61,1.1-1.25,2.18-1.89,3.26A.48.48,0,0,1,100.68,96.41Zm458-.11a.53.53,0,0,1-.27-.08c-1-.71-2.08-1.4-3.13-2a.47.47,0,1,1,.5-.8c1.06.65,2.12,1.35,3.16,2.06a.47.47,0,0,1,.12.66A.46.46,0,0,1,558.72,96.3ZM297.57,94.21a.48.48,0,0,1-.46-.37c-.27-1.22-.54-2.44-.83-3.65a.47.47,0,0,1,.35-.57.47.47,0,0,1,.56.35c.29,1.22.57,2.44.84,3.67a.47.47,0,0,1-.35.56Zm186.48-.11a.45.45,0,0,1-.4-.23.47.47,0,0,1,.16-.65c1.08-.63,2.2-1.25,3.31-1.82a.46.46,0,0,1,.63.2.47.47,0,0,1-.2.63c-1.1.57-2.19,1.18-3.26,1.8A.44.44,0,0,1,484.05,94.1Zm68.27-1.74a.46.46,0,0,1-.22-.06c-1.1-.6-2.22-1.17-3.32-1.7a.46.46,0,0,1-.22-.63.47.47,0,0,1,.62-.22c1.12.54,2.26,1.12,3.37,1.73a.46.46,0,0,1,.19.63A.48.48,0,0,1,552.32,92.36Zm-61.6-1.72a.47.47,0,0,1-.43-.27.47.47,0,0,1,.23-.62c1.14-.52,2.31-1,3.49-1.47a.47.47,0,0,1,.34.88c-1.16.45-2.32.94-3.44,1.44A.43.43,0,0,1,490.72,90.64Zm-386.34-.77a.43.43,0,0,1-.22-.06.47.47,0,0,1-.2-.63c.58-1.11,1.15-2.22,1.7-3.34a.47.47,0,0,1,.63-.21.48.48,0,0,1,.22.63c-.56,1.13-1.13,2.25-1.72,3.36A.46.46,0,0,1,104.38,89.87Zm441.17-.75a.39.39,0,0,1-.18,0c-1.16-.47-2.34-.91-3.49-1.3a.47.47,0,1,1,.3-.89c1.17.4,2.37.84,3.54,1.32a.48.48,0,0,1,.26.62A.46.46,0,0,1,545.55,89.12Zm-47.83-1.2a.47.47,0,0,1-.45-.32.46.46,0,0,1,.3-.59c1.19-.39,2.4-.76,3.62-1.09a.47.47,0,0,1,.58.33.48.48,0,0,1-.33.58c-1.2.32-2.41.68-3.58,1.07A.36.36,0,0,1,497.72,87.92Zm-201.88-1a.46.46,0,0,1-.45-.35c-.31-1.21-.63-2.42-1-3.62a.47.47,0,0,1,.32-.58.47.47,0,0,1,.58.33c.34,1.2.67,2.42,1,3.63a.48.48,0,0,1-.34.58Zm242.6-.19-.13,0c-1.19-.33-2.41-.62-3.62-.88a.47.47,0,0,1-.36-.56.46.46,0,0,1,.56-.36c1.23.26,2.46.56,3.67.9a.46.46,0,0,1,.33.57A.48.48,0,0,1,538.44,86.71ZM505,86a.47.47,0,0,1-.1-.93c1.23-.27,2.48-.5,3.72-.71a.47.47,0,0,1,.15.93c-1.22.2-2.46.43-3.67.7Zm26.13-.82H531c-1.22-.19-2.46-.35-3.7-.48a.48.48,0,0,1-.42-.51.49.49,0,0,1,.52-.42c1.25.12,2.51.29,3.75.48a.47.47,0,0,1-.08.93Zm-18.72-.39a.47.47,0,0,1,0-.94c1.25-.14,2.51-.25,3.77-.32a.45.45,0,0,1,.49.44.47.47,0,0,1-.44.5c-1.23.07-2.49.18-3.72.31Zm11.25-.36c-1.12,0-2.24-.08-3.34-.08h-.41a.47.47,0,1,1,0-.94h.41c1.12,0,2.25,0,3.37.08a.47.47,0,0,1,0,.94ZM107.69,83.13a.45.45,0,0,1-.19,0,.46.46,0,0,1-.23-.62c.51-1.13,1-2.28,1.5-3.43a.47.47,0,1,1,.86.37c-.48,1.16-1,2.31-1.51,3.45A.48.48,0,0,1,107.69,83.13Zm186.1-3.45a.47.47,0,0,1-.45-.33c-.39-1.21-.8-2.4-1.21-3.53a.47.47,0,0,1,.88-.32c.42,1.14.83,2.34,1.22,3.57a.47.47,0,0,1-.3.59ZM110.6,76.2a.51.51,0,0,1-.17,0,.47.47,0,0,1-.27-.61q.68-1.74,1.29-3.51a.47.47,0,1,1,.88.31q-.61,1.78-1.29,3.54A.46.46,0,0,1,110.6,76.2Zm180.59-3.56a.48.48,0,0,1-.43-.29c-.49-1.17-1-2.31-1.55-3.39a.47.47,0,0,1,.22-.63.46.46,0,0,1,.62.21c.55,1.1,1.07,2.26,1.57,3.44a.47.47,0,0,1-.24.62A.65.65,0,0,1,291.19,72.64ZM113.07,69.11l-.14,0a.47.47,0,0,1-.31-.59c.37-1.19.72-2.39,1-3.59a.47.47,0,0,1,.91.25c-.34,1.21-.69,2.42-1.06,3.62A.48.48,0,0,1,113.07,69.11Zm174.8-3.21a.48.48,0,0,1-.41-.23c-.61-1.07-1.27-2.14-1.95-3.17a.46.46,0,0,1,.13-.65.48.48,0,0,1,.65.13c.7,1.05,1.37,2.13,2,3.22a.47.47,0,0,1-.17.64A.53.53,0,0,1,287.87,65.9Zm-172.8-4-.11,0a.46.46,0,0,1-.35-.56c.29-1.21.56-2.43.81-3.65a.47.47,0,1,1,.92.19c-.25,1.23-.52,2.45-.82,3.68A.47.47,0,0,1,115.07,61.87Zm168.65-2.22a.46.46,0,0,1-.37-.18c-.75-1-1.54-1.95-2.35-2.89a.47.47,0,1,1,.71-.61c.82,1,1.63,1.94,2.38,2.93a.47.47,0,0,1-.08.66A.52.52,0,0,1,283.72,59.65ZM116.58,54.51h-.08a.47.47,0,0,1-.39-.54c.21-1.23.4-2.46.57-3.7a.47.47,0,0,1,.53-.4.48.48,0,0,1,.4.53c-.17,1.25-.36,2.49-.57,3.73A.47.47,0,0,1,116.58,54.51ZM278.8,54a.47.47,0,0,1-.33-.14c-.86-.87-1.77-1.74-2.69-2.58a.47.47,0,1,1,.63-.69c.94.84,1.86,1.72,2.73,2.61a.47.47,0,0,1,0,.67A.46.46,0,0,1,278.8,54Zm-5.57-5a.48.48,0,0,1-.29-.11c-1-.77-2-1.53-3-2.25a.47.47,0,1,1,.55-.77c1,.74,2,1.51,3,2.29a.47.47,0,0,1,.07.66A.46.46,0,0,1,273.23,49ZM117.58,47.07a.48.48,0,0,1-.46-.52c.12-1.24.22-2.48.31-3.73a.45.45,0,0,1,.49-.43.46.46,0,0,1,.44.49c-.08,1.26-.18,2.51-.31,3.76A.47.47,0,0,1,117.58,47.07Zm149.55-2.5a.47.47,0,0,1-.25-.07c-1-.67-2.11-1.32-3.19-1.94a.47.47,0,0,1,.46-.82c1.1.63,2.19,1.3,3.24,2a.47.47,0,0,1,.14.65A.46.46,0,0,1,267.13,44.57Zm-6.51-3.74a.43.43,0,0,1-.22-.06c-1.09-.56-2.22-1.11-3.36-1.63a.47.47,0,0,1,.39-.85c1.15.52,2.3,1.08,3.4,1.65a.47.47,0,0,1-.21.89Zm-140.87,0c-1.13,0-2.23,0-3.28-.08a.49.49,0,0,1-.45-.5.46.46,0,0,1,.49-.44c1,.05,2.13.08,3.24.08h.49a.46.46,0,0,1,.47.46.47.47,0,0,1-.46.48Zm4.25-.12a.46.46,0,0,1-.47-.44.48.48,0,0,1,.44-.5c1.25-.06,2.49-.15,3.74-.25a.45.45,0,0,1,.5.42.46.46,0,0,1-.42.51c-1.26.11-2.51.2-3.77.26Zm-11.25-.28h-.06c-1.28-.16-2.54-.36-3.74-.61a.47.47,0,1,1,.19-.92c1.17.24,2.41.44,3.66.6a.47.47,0,0,1,0,.93Zm18.8-.35a.5.5,0,0,1-.5-.41.45.45,0,0,1,.38-.52l3.73-.42a.46.46,0,0,1,.52.41.47.47,0,0,1-.41.52c-1.22.15-2.44.29-3.67.42Zm-13.48-.46a.47.47,0,0,1-.47-.48c0-1,.05-2.08.05-3.13v-.61a.47.47,0,0,1,.94,0V36c0,1.06,0,2.11,0,3.16A.46.46,0,0,1,118.07,39.57Zm20.87-.43a.47.47,0,0,1-.06-.94l3.72-.51a.47.47,0,0,1,.13.93c-1.24.18-2.48.35-3.73.51Zm-33.53-.3-.14,0c-.53-.17-1.06-.34-1.59-.53s-1.33-.52-2-.81a.46.46,0,0,1-.24-.62.47.47,0,0,1,.62-.23c.63.28,1.28.54,1.92.77s1,.36,1.55.52a.47.47,0,0,1,.3.59A.46.46,0,0,1,105.41,38.84Zm41-.76a.47.47,0,0,1-.07-.94l3.71-.57a.47.47,0,0,1,.14.93c-1.23.19-2.47.39-3.71.57Zm107.4-.39a.38.38,0,0,1-.17,0c-1.14-.46-2.32-.91-3.49-1.34a.48.48,0,0,1-.29-.6.47.47,0,0,1,.6-.28c1.19.43,2.38.88,3.53,1.36a.46.46,0,0,1,.26.61A.48.48,0,0,1,253.78,37.69Zm-100-.78a.45.45,0,0,1-.46-.39.46.46,0,0,1,.38-.54l3.71-.61a.47.47,0,0,1,.54.39.47.47,0,0,1-.39.54l-3.71.61ZM98.56,35.78a.44.44,0,0,1-.24-.07,31.19,31.19,0,0,1-3.13-2.18.47.47,0,0,1,.59-.74,26.91,26.91,0,0,0,3,2.12.47.47,0,0,1,.16.64A.48.48,0,0,1,98.56,35.78Zm62.65-.09a.47.47,0,0,1-.07-.93l3.7-.62a.47.47,0,0,1,.54.39.47.47,0,0,1-.39.54l-3.7.61Zm85.51-.56-.15,0c-1.17-.37-2.38-.73-3.58-1.07a.47.47,0,0,1-.33-.58.47.47,0,0,1,.58-.32c1.22.33,2.43.7,3.62,1.08a.46.46,0,0,1,.3.59A.47.47,0,0,1,246.72,35.13Zm-78.1-.66a.48.48,0,0,1-.46-.4.47.47,0,0,1,.39-.54l3.71-.59a.47.47,0,1,1,.15.92l-3.71.6Zm7.43-1.18a.47.47,0,0,1-.08-.93l3.72-.55a.47.47,0,0,1,.54.39.48.48,0,0,1-.4.54c-1.24.17-2.48.36-3.71.55Zm63.42-.17h-.11c-1.21-.29-2.43-.56-3.65-.81a.47.47,0,1,1,.19-.92c1.23.25,2.46.52,3.68.81a.48.48,0,0,1,.35.57A.47.47,0,0,1,239.47,33.12Zm-56-.9a.46.46,0,0,1-.46-.41.46.46,0,0,1,.4-.52l3.73-.49a.46.46,0,0,1,.52.41.47.47,0,0,1-.4.53q-1.86.23-3.72.48ZM118,32.06a.47.47,0,0,1-.47-.46c0-1.18-.08-2.44-.15-3.75a.47.47,0,0,1,.45-.49.45.45,0,0,1,.49.45c.07,1.31.11,2.58.15,3.76a.49.49,0,0,1-.46.49Zm114.07-.43H232c-1.23-.21-2.46-.39-3.7-.56a.47.47,0,0,1-.4-.52.48.48,0,0,1,.53-.41c1.24.17,2.49.36,3.73.56a.47.47,0,0,1-.08.94Zm-41.17-.32a.47.47,0,0,1-.05-.94c1.25-.14,2.49-.27,3.74-.38a.47.47,0,1,1,.09.93L191,31.3ZM92.72,31.1a.45.45,0,0,1-.34-.15A24.85,24.85,0,0,1,90,28a.47.47,0,0,1,.11-.65.48.48,0,0,1,.66.11,23,23,0,0,0,2.33,2.85A.47.47,0,0,1,93,31,.5.5,0,0,1,92.72,31.1Zm132-.47c-1.29-.13-2.53-.23-3.77-.32a.46.46,0,0,1-.44-.5.48.48,0,0,1,.5-.43c1.25.08,2.5.19,3.75.31a.47.47,0,0,1,.42.52A.46.46,0,0,1,224.67,30.63Zm-26.25,0a.48.48,0,0,1-.47-.43.47.47,0,0,1,.43-.51c1.25-.09,2.51-.18,3.76-.25a.46.46,0,0,1,.49.44.46.46,0,0,1-.44.49Zm7.5-.44a.47.47,0,0,1,0-.94c1.25,0,2.51-.08,3.76-.1a.45.45,0,0,1,.48.46.46.46,0,0,1-.46.48C208.43,30.08,205.92,30.16,205.92,30.16Zm11.26,0L213.42,30a.47.47,0,0,1,0-.94l3.77.08a.48.48,0,0,1,.45.49A.47.47,0,0,1,217.18,30.12ZM88.46,25a.47.47,0,0,1-.43-.27,20.55,20.55,0,0,1-1.3-3.61.47.47,0,0,1,.34-.57.46.46,0,0,1,.57.34,19.43,19.43,0,0,0,1.24,3.44.48.48,0,0,1-.22.63A.51.51,0,0,1,88.46,25Zm29.18-.4a.48.48,0,0,1-.47-.43c-.11-1.3-.25-2.55-.42-3.71a.47.47,0,0,1,.4-.53.46.46,0,0,1,.53.4c.17,1.18.31,2.44.43,3.76a.48.48,0,0,1-.43.51Zm-31-6.83a.47.47,0,0,1-.47-.46c0-.18,0-.37,0-.56a15.33,15.33,0,0,1,.36-3.28.46.46,0,0,1,.56-.36.47.47,0,0,1,.36.55,14.27,14.27,0,0,0-.34,3.09c0,.18,0,.35,0,.53a.47.47,0,0,1-.45.49Zm29.94-.61a.47.47,0,0,1-.46-.37c-.27-1.27-.59-2.48-.94-3.59a.47.47,0,1,1,.89-.29,37.77,37.77,0,0,1,1,3.68.48.48,0,0,1-.36.56ZM88.16,10.43a.43.43,0,0,1-.19,0,.46.46,0,0,1-.23-.62,18.24,18.24,0,0,1,2-3.31.46.46,0,0,1,.65-.09.48.48,0,0,1,.1.66,17.21,17.21,0,0,0-1.88,3.13A.47.47,0,0,1,88.16,10.43ZM114.25,10a.47.47,0,0,1-.42-.27A20.07,20.07,0,0,0,112,6.55a.47.47,0,0,1,.76-.55,21.07,21.07,0,0,1,2,3.31.46.46,0,0,1-.23.62A.46.46,0,0,1,114.25,10ZM92.65,4.47a.48.48,0,0,1-.36-.16.47.47,0,0,1,0-.67,16.15,16.15,0,0,1,3.19-2.16.49.49,0,0,1,.64.21.48.48,0,0,1-.21.63,15.36,15.36,0,0,0-3,2A.5.5,0,0,1,92.65,4.47ZM109.8,4a.43.43,0,0,1-.3-.11A12.92,12.92,0,0,0,106.43,2a.46.46,0,0,1-.24-.62.45.45,0,0,1,.61-.24,13.48,13.48,0,0,1,3.3,2,.46.46,0,0,1,.06.66A.48.48,0,0,1,109.8,4ZM99.28,1.15a.47.47,0,0,1-.46-.39A.46.46,0,0,1,99.2.22a11.78,11.78,0,0,1,3.88-.11.47.47,0,0,1,.41.52A.48.48,0,0,1,103,1a11.11,11.11,0,0,0-3.59.1Z"/><path class="cls-7" d="M189,257l-39-1.66a27.68,27.68,0,0,1,.63-4c.95-4.17,2.66-8,3.81-12.22,1.51-5.59-1.87-16.64-3.49-21.94s-.46-13.24-.46-13.24c1.28-1.53,9.39-3.52,12.28-4.62a2.93,2.93,0,0,0,1-.5c.47-.58.5-3.21.46-4.9,0-.83,0-1.42,0-1.42l.51-.43,8.53,1.31a7.41,7.41,0,0,0,.05,3,2.33,2.33,0,0,0,1.2,1.58,6.4,6.4,0,0,0,1.52.45.24.24,0,0,0,.12,0,26.4,26.4,0,0,0,4,.38c.9,0,1.53,0,1.53,0a44.26,44.26,0,0,1,4.39,9.67c.47,1.43.91,3,1.28,4.65,1.44,6.53,1.68,28.48,1.71,38.65C189,255,189,257,189,257Z"/><path class="cls-7" d="M169.94,370.44c-1.25.86-12.72.05-12.83-.76s-.27-1.62-.37-2.3a1.35,1.35,0,0,1,0-.18c0-5.62-1.44-18.83-1.44-18.83s6-3.93,8.31-.73c0,0-2.92,18.34-.17,19.67l.38.18a22.06,22.06,0,0,0,6,1.69S171.18,369.58,169.94,370.44Z"/><path class="cls-8" d="M169.94,370.44c-1.25.86-12.72.05-12.83-.76s-.27-1.62-.37-2.3l0-.18a22.76,22.76,0,0,0,7.08.29,22.06,22.06,0,0,0,6,1.69S171.18,369.58,169.94,370.44Z"/><path class="cls-7" d="M186.63,363.63c-1.52,0-10.59-7-10.24-7.77s.68-1.5,1-2.12a.8.8,0,0,1,.08-.16c3.12-4.66,6.83-20.37,6.83-20.37s7.71.56,7.85,4.5c0,0-10.73,17.05-9.19,19.69l.22.36a22.32,22.32,0,0,0,4,4.72S188.15,363.61,186.63,363.63Z"/><path class="cls-8" d="M186.63,363.63c-1.52,0-10.59-7-10.24-7.77s.68-1.5,1-2.12l.08-.16a22.91,22.91,0,0,0,5.71,4.18,22.32,22.32,0,0,0,4,4.72S188.15,363.61,186.63,363.63Z"/><path class="cls-9" d="M185.15,352.29c-.89,1.29-6.86-1.54-6.21-4,8.31-31.77,13.49-36.13,13.49-36.13a3.38,3.38,0,0,0-.17-3.48c-9.93-14.74-19.73-33.55-19.73-33.55.2,7.5-2.65,34.76-3.29,42.26s-5.13,42.52-6,42.95c-5,2.61-8,0-8,0s-4.42-19-2.85-29.5-1.24-25.3-2.46-39.44a219.19,219.19,0,0,1-.93-29.33c.57-10.94,2.35-13.68,2.35-13.68,11.28,2.59,26.44,2.35,33.57,2,2.5-.1,4-.21,4-.21l1.46,3.93c4.49,12.07,17.77,48.2,18.55,54.76C209.9,316.8,185.15,352.29,185.15,352.29Z"/><path class="cls-10" d="M189.8,252.47,185,250.42c-7.13.3-22.29.54-33.57-2,0,0-1.78,2.74-2.35,13.68,8.42.46,28.83.55,41.39-7.91Z"/><path class="cls-7" d="M218.55,160.35s-.09-3.23.83-5c1.24-2.3,11.19-2,11.19-2a2,2,0,0,1-1.48,3.33c-5.12,1.14-4.71,5.63-4.71,5.63S218.32,162.05,218.55,160.35Z"/><path class="cls-11" d="M173.22,196.32c-6.19,1.67-8.07-.26-9.05-2.44,0-.83,0-1.42,0-1.42l.51-.43,8.53,1.31A7.41,7.41,0,0,0,173.22,196.32Z"/><path class="cls-8" d="M173.6,187.2c3.94-1.81,2.06-6.67,1.57-9.88a7.63,7.63,0,0,0-1-3.33,5.27,5.27,0,0,0-3.66-2,6.32,6.32,0,0,0-4.65,1.2c-1.13.93-1.57,2.45-2.56,3.51-1.63,1.77-4.57,2.21-5.6,4.38a5.31,5.31,0,0,0-.37,2.65c.26,3.5,2.32,7,6.26,6.81a29.25,29.25,0,0,0,7.24-1.6,6.28,6.28,0,0,0,1.56-.65C173,187.87,172.85,187.54,173.6,187.2Z"/><path class="cls-11" d="M175,183.35a1.73,1.73,0,0,1,2.76-.5c1.68,1.41-.1,5-1.86,5.47A39.62,39.62,0,0,1,175,183.35Z"/><path class="cls-7" d="M173.62,178.54c1.09.79,1.91,4,2.41,6.32,1.53,7.12-.22,9.75-3.8,10.8s-7.67.34-9.66-6.16c-1-3.25-2-6.24-1-7.89C163,179.14,170.28,176.12,173.62,178.54Z"/><path class="cls-7" d="M162.91,188.45s-1.66-2.76-3.14-.87,1.72,5.7,4.36,4.88C164.13,192.46,164,189.31,162.91,188.45Z"/><path class="cls-11" d="M160.84,188.78a2.51,2.51,0,0,1,1.2.51,3,3,0,0,1,1,.86c.07.11-.09.21-.18.15-.27-.17-.5-.39-.75-.58a1.54,1.54,0,0,1-.45.5c-.15.09-.31-.09-.26-.24a1.38,1.38,0,0,1,.35-.49,5.74,5.74,0,0,1-1-.48A.13.13,0,0,1,160.84,188.78Z"/><path class="cls-8" d="M172.6,184.8s.67.12.37-1-.68-.76-.68-.76-.43.07-.21.92S172.6,184.8,172.6,184.8Z"/><path class="cls-8" d="M166.58,186.39s.66.12.37-1-.68-.75-.68-.75-.43.07-.21.92S166.58,186.39,166.58,186.39Z"/><path class="cls-11" d="M170.57,188.69c.31-.1,1.06-.05,1.15-.41a9.38,9.38,0,0,0-.86-2.15,30.81,30.81,0,0,1-1.26-2.83.06.06,0,0,1,.11-.05,35,35,0,0,1,2.41,5.15.16.16,0,0,1-.11.22c-.46.08-.89.25-1.35.34C170.51,189,170.41,188.74,170.57,188.69Z"/><path class="cls-8" d="M171.32,181.59c.41-.31,1.23-.51,1.63-.11a.14.14,0,0,1-.08.23c-.22,0-.44-.05-.66,0a1.8,1.8,0,0,0-.67.24A.2.2,0,0,1,171.32,181.59Z"/><path class="cls-8" d="M165.15,183.77c.14-.67,1.23-.93,1.77-.62a.17.17,0,0,1,0,.3,3.38,3.38,0,0,1-.84.16,2.79,2.79,0,0,0-.64.34A.18.18,0,0,1,165.15,183.77Z"/><path class="cls-12" d="M173.74,189.71a4.43,4.43,0,0,1-4.4,1.28s.62,1.39,2.79,1C173.55,191.66,173.74,189.71,173.74,189.71Z"/><path class="cls-7" d="M152.07,212.72a21,21,0,0,1-3-2.43c-11-10.69-17.82-36.69-17.71-39.95.16-4.64,1.45-11,2.73-16.32.18-.74.36-1.45.53-2.14.49-1.92,1-3.63,1.33-4.95.51-1.83.85-3,.85-3s4.47-3.11,5.85.21c0,0-.56,3.29-.69,4.73-.09,1-.42,4.72-.48,5.39-.54,6.29-1.17,14.5-1,16.7.21,2.8,10.42,20.58,21,27.78l.18.13C163.56,200.13,167.62,223,152.07,212.72Z"/><path class="cls-7" d="M137.43,146.28s-.6-1.63-1.56-3.58-3.11-6.22-3-7.82a4.14,4.14,0,0,1,.31-.69,1.74,1.74,0,0,1,.11-.18,3.94,3.94,0,0,1,1-1.09l.11-.08a4,4,0,0,1,1.29-.56l.13,0a5.81,5.81,0,0,1,1.32-.14s2.08,4.4,3.27,5.53c0,0-.56-2.95.17-3.55l.64-.09s1,3.11,1.51,4.45a9,9,0,0,1-.25,6.63S139.53,147.73,137.43,146.28Z"/><path class="cls-11" d="M135.72,132.28l.13,0a49.55,49.55,0,0,0,2.9,5.84s0,.08-.06,0A15.45,15.45,0,0,1,135.72,132.28Z"/><path class="cls-11" d="M134.32,132.92l.11-.08a48.87,48.87,0,0,0,2.91,5.84s0,.08-.06,0A15.56,15.56,0,0,1,134.32,132.92Z"/><path class="cls-11" d="M133.16,134.19a1.74,1.74,0,0,1,.11-.18,51.68,51.68,0,0,0,2.78,5.51s0,.08-.06,0A14.07,14.07,0,0,1,133.16,134.19Z"/><path class="cls-8" d="M225.57,161.37c-.42,4.31-6.24,22.78-10.48,31.76-1.2,2.53-13.38,10.08-21.28,14.86l-6.66,4a4.36,4.36,0,0,1,.15.87c0,.1,0,.17-.05.19,1.35,6.12,2.57,25.82,2.74,36.63,0,.72,0,1.4,0,2a48.64,48.64,0,0,1-40-.76c.94-4.18,3.29-7.66,4.44-11.92,1.51-5.58-2.6-20.61-6.29-29.09a8,8,0,0,1-.41-1.19c-10.16-11.43-16.4-35.35-16.3-38.46.16-4.65,1.45-11,2.73-16.32,2.24.12,5.05.3,7.39.29-.54,6.3-1.17,14.51-1,16.7.21,2.81,10.42,20.58,21,27.78l.18.13a1.6,1.6,0,0,1,.42.57l.58-.21c2,3.06,7,10,11.07,8.5,3-1.14,3-4.85,2.53-7.67-.05-.21-.1-.41-.13-.58s0-.25-.08-.35,0-.24-.05-.33-.09-.35-.13-.5l.12,0a7.56,7.56,0,0,0,.85-.19c.58-.14,1.39-.37,2.39-.68l0,.09c2.82-.87,7.14-2.33,12.08-4.25l1.41-.56a115.05,115.05,0,0,0,12.4-5.47,294.28,294.28,0,0,0,12.83-27.11C222.21,161.51,223.47,161,225.57,161.37Z"/><path class="cls-13" d="M187.25,213.1c1.35,6.12,2.57,25.82,2.74,36.63-4-1.7-11.58-4.36-11.58-18.61,0-19.24-.74-29-1.5-32.93.58-.14,1.39-.37,2.39-.68l0,.09c2.82-.87,7.14-2.33,12.08-4.25L193.81,208l-6.66,4a4.36,4.36,0,0,1,.15.87C187.3,213,187.28,213.08,187.25,213.1Z"/><path class="cls-7" d="M56.79,264.61a15.59,15.59,0,0,1-3.21,3c-1.56,1.22-5.32,3.47-5.88,4.81a4.09,4.09,0,0,0,0,.7,1.48,1.48,0,0,0,0,.19,3.32,3.32,0,0,0,.42,1.3l.06.12a3.5,3.5,0,0,0,.83,1l.09.08a5.87,5.87,0,0,0,1,.64s3.46-2.78,4.89-3.24c0,0-1.63,2.2-1.28,3l.49.33s2-2.17,3-3.05a9.59,9.59,0,0,0,2.81-5.38S59.08,264.26,56.79,264.61Z"/><path class="cls-11" d="M49,275.7l.09.08a45.41,45.41,0,0,1,4.71-3.64,0,0,0,0,0,0-.06A14.35,14.35,0,0,0,49,275.7Z"/><path class="cls-11" d="M48.13,274.61l.06.12a45.41,45.41,0,0,1,4.71-3.64s0-.08,0-.06A14.13,14.13,0,0,0,48.13,274.61Z"/><path class="cls-11" d="M47.68,273.12a1.48,1.48,0,0,0,0,.19,47,47,0,0,1,4.46-3.42,0,0,0,0,0,0-.06A12.88,12.88,0,0,0,47.68,273.12Z"/><path class="cls-7" d="M86.16,205.15s-3.77-1.22-7.58,6.65-6.34,24.61-9,30.9-14.87,25.05-14.87,25.05l3.58,2.44s14.2-17.32,18.13-25S98.31,203.64,86.16,205.15Z"/><path class="cls-7" d="M132.36,298.31c-1.26,5.4-7.77,16.59-13.74,26.11-5.48,8.75-10.51,16.09-10.61,16.23a29.6,29.6,0,0,0-3,5.79,4.31,4.31,0,0,0,.51,2.2,12.47,12.47,0,0,0,3,4.53s1,1.39-.74,1.24-9-7.37-8.49-8.15,1-1.58,1.35-2.27a36.13,36.13,0,0,0,2-4s.38-1.06,1.07-2.85c0,0,1.64-7.45,4.55-16.16,2.57-7.71,6.14-16.41,10.43-21.79,0,0-8.87-9.48-18.16-20.11-6-6.93-12.28-14.35-16.32-19.95-2.19-3-3.45-6-1.17-8.74,1.13-1.37,3.16-2.66,6.41-3.86,9.73-3.59,14.34-5.53,14.34-5.53S134.79,287.9,132.36,298.31Z"/><path class="cls-7" d="M100.55,279.07c0,.26-.1.51-.14.73C99.2,285.93,87.56,315.68,86,320.19c-.71,2.05-4,10.72-7.38,19.78-4.07,10.88-8.32,22.33-8.49,23.54a4.43,4.43,0,0,0,.84,2.1,12.46,12.46,0,0,0,3.69,4s1.17,1.22-.54,1.34-10-5.89-9.65-6.73.71-1.72,1-2.46a32.25,32.25,0,0,0,1.33-4.26s.21-1.08.6-2.92c0,0,.79-7.34,2-15.83s2.82-18.1,4.47-22.73c1.4-3.94,4-6.07,4.86-16.32s0-46.93,0-46.93c0-.75.87-2,4.35-2.39a40,40,0,0,1,9.8.3C104.32,252.13,101.84,272.13,100.55,279.07Z"/><path class="cls-8" d="M80,190.84a8.38,8.38,0,0,0,2.62,4.66,10.21,10.21,0,0,0,7.2,2.08c2.9-.2,6-1,7.73-3.46,1.92-2.74,3.91-5.59,3.69-9.12a8.64,8.64,0,0,0-3.73-6.32c-2.49-1.75-5-3.47-8.12-2a8.3,8.3,0,0,0,1-4.64,5.19,5.19,0,0,0-2.41-4,5,5,0,0,0-5.57.68,6.62,6.62,0,0,0-2.12,5.36c.1,2.08,1.53,4.64,3.87,4.62C80.34,180.64,79,186.35,80,190.84Z"/><path class="cls-7" d="M78.71,252.77l28.21,3.1A158.93,158.93,0,0,0,103.25,233c-2-8.21-.12-8.81,0-11.42S98.63,214.34,97,211c-1.31-2.72-2.67-5-2.71-8.26a13.23,13.23,0,0,1,.19-2.51s-4.74-6.35-7.19-2.47a6.17,6.17,0,0,0-.1,1.17c-.09,1.6-.29,4.36-1.58,5.35,0,0-6.21,3.5-5.28,12.17s5.61,17.23,3.9,20.7S78.71,243.4,78.71,252.77Z"/><path class="cls-11" d="M87.19,198.92a9.49,9.49,0,0,0,7.1,3.81,13.23,13.23,0,0,1,.19-2.51s-4.74-6.35-7.19-2.47A6.17,6.17,0,0,0,87.19,198.92Z"/><path class="cls-8" d="M99.33,346.26c-.48.78,6.77,8,8.49,8.15s.74-1.24.74-1.24a12.3,12.3,0,0,1-3-4.53,14.48,14.48,0,0,1-4.86-4.65C100.3,344.67,99.85,345.43,99.33,346.26Z"/><path class="cls-8" d="M64.47,364.22c-.35.85,7.93,6.85,9.65,6.73s.54-1.34.54-1.34a12.36,12.36,0,0,1-3.69-4,14.33,14.33,0,0,1-5.52-3.85C65.18,362.5,64.86,363.32,64.47,364.22Z"/><path class="cls-7" d="M98.27,186.19c.74,1.05,1,3,1,5.31.22,7-3.14,9.51-5.42,9.51s-7.27-1-8-7.43c-.38-3.23-.36-5.94.39-7.61C87.79,182.49,95,181.6,98.27,186.19Z"/><path class="cls-8" d="M96.09,191.94s.6.23.51-.84-.51-.83-.51-.83-.42,0-.35.84S96.09,191.94,96.09,191.94Z"/><path class="cls-8" d="M90.39,192.08s.61.23.52-.84-.52-.83-.52-.83-.41,0-.35.84S90.39,192.08,90.39,192.08Z"/><path class="cls-11" d="M93,194.24c.31,0,1,.14,1.15-.19a8.9,8.9,0,0,0-.44-2.17c-.08-.3-.15-.58-.23-.84l.08-.06a.8.8,0,0,1,.2-.07c.28,1.11.48,2.27.75,3.32a.15.15,0,0,1-.15.19c-.44,0-.88.09-1.32.09C92.86,194.51,92.81,194.27,93,194.24Z"/><path class="cls-8" d="M95.43,188.71c.43-.22,1.24-.28,1.55.17a.13.13,0,0,1-.11.2c-.22,0-.41-.12-.62-.13a1.71,1.71,0,0,0-.67.1C95.38,189.11,95.24,188.8,95.43,188.71Z"/><path class="cls-8" d="M89.49,189.37c.25-.61,1.32-.67,1.77-.29a.17.17,0,0,1-.07.29,4.59,4.59,0,0,1-.83,0,2.64,2.64,0,0,0-.66.2C89.59,189.62,89.44,189.49,89.49,189.37Z"/><path class="cls-11" d="M92.24,195.9a2.93,2.93,0,0,0,1.24.47c.39,0,.81-.17,1.17,0a.1.1,0,0,1,.06.15c-.28.42-1,.46-1.47.42a1.61,1.61,0,0,1-1.32-.68A.24.24,0,0,1,92.24,195.9Z"/><path class="cls-8" d="M92.82,183.93a2.1,2.1,0,0,1-.79,1.31,3.83,3.83,0,0,1-1.49.47,1.75,1.75,0,0,0-1.29.83,4.78,4.78,0,0,0-.21,1.09,2,2,0,0,1-.91,1.3c-.43.25-.95.34-1.26.73a5.29,5.29,0,0,0-.43,1c-.16.32-.52.6-.83.44a9.7,9.7,0,0,1-1.34-3.42,5.85,5.85,0,0,1,2-5.15,6.26,6.26,0,0,1,5.28-1.26C93,181.54,93.11,182.64,92.82,183.93Z"/><path class="cls-7" d="M86.35,192.05s-1.09-2.88-2.81-1.35.65,5.65,3.27,5.33C86.81,196,87.18,193,86.35,192.05Z"/><path class="cls-11" d="M84.39,192a2.54,2.54,0,0,1,1,.68,2.94,2.94,0,0,1,.77,1c0,.11-.12.19-.2.11s-.4-.45-.61-.68a1.48,1.48,0,0,1-.5.4c-.16.06-.28-.14-.21-.27a1.35,1.35,0,0,1,.42-.4,5.28,5.28,0,0,1-.83-.62A.12.12,0,0,1,84.39,192Z"/><path class="cls-8" d="M132.36,298.31c-1.26,5.4-7.77,16.59-13.74,26.11A41.79,41.79,0,0,1,108.28,321c2.57-7.71,6.14-16.41,10.43-21.79,0,0-8.87-9.48-18.16-20.11,0,.26-.1.51-.14.73a53.92,53.92,0,0,1-1.54,5.3C95.35,295.79,87.28,316.49,86,320.19c-.71,2.05-4,10.72-7.38,19.78a21.35,21.35,0,0,1-9.24-1.22c1.2-8.47,2.82-18.1,4.47-22.73,1.4-3.94,4-6.07,4.86-16.32a256.23,256.23,0,0,0,.4-27.17c-.07-3-.14-5.93-.19-8.88,0-1.43,0-2.89,0-4.36a36.24,36.24,0,0,0-.23-4.8,20.93,20.93,0,0,1,4.75-15.67,1.11,1.11,0,0,1,.47-.39,1.06,1.06,0,0,1,.68,0c3.28.78,6.41,2.44,9.71,3a42.39,42.39,0,0,0,10.07.45.83.83,0,0,1,.58.11,1,1,0,0,1,.22.31c3.37,6.48,7.53,12.65,11.24,19,5.72,9.72,12,20,15.22,30.88C132.2,294.1,132.82,296.33,132.36,298.31Z"/><path class="cls-7" d="M124.89,196.84s1.3-2.88,2.62-5.74c.79-1.73,3-5.3,2.9-6.69a4,4,0,0,0-.29-.61l-.11-.15a3.4,3.4,0,0,0-.93-.93l-.1-.07a3.49,3.49,0,0,0-1.14-.46l-.11,0a4.69,4.69,0,0,0-1.16-.1s-1.74,3.89-2.75,4.91c0,0,.43-2.59-.22-3.1l-.56-.07s-.78,2.74-1.23,3.93a9.14,9.14,0,0,0,0,5.83S123.08,198.15,124.89,196.84Z"/><path class="cls-11" d="M127.84,182.19l-.11,0a43.21,43.21,0,0,1-2.43,5.16s0,.07.06,0A13.66,13.66,0,0,0,127.84,182.19Z"/><path class="cls-11" d="M129.08,182.72l-.1-.07a44.12,44.12,0,0,1-2.42,5.17s0,.07,0,0A13.62,13.62,0,0,0,129.08,182.72Z"/><path class="cls-11" d="M130.12,183.8l-.11-.15a43.41,43.41,0,0,1-2.31,4.88s0,.07.06,0A12.56,12.56,0,0,0,130.12,183.8Z"/><g class="cls-14"><rect class="cls-15" x="65.14" y="165.11" width="41.97" height="41.97"/><rect class="cls-15" x="65.14" y="207.08" width="41.97" height="41.97"/><rect class="cls-15" x="65.14" y="249.05" width="41.97" height="41.97"/><rect class="cls-15" x="107.1" y="165.11" width="41.97" height="41.97"/><rect class="cls-15" x="107.1" y="207.08" width="41.97" height="41.97"/><rect class="cls-15" x="107.1" y="249.05" width="41.97" height="41.97"/></g><g class="cls-16"><rect class="cls-15" x="65.14" y="165.11" width="41.97" height="41.97"/></g><path class="cls-17" d="M105.8,222.77A27.14,27.14,0,0,0,105,226c-.21,1.19-.51,2.44-.65,3.68-19.31-5-22.51-15.59-22.51-15.59l-.48-.42c-.39-2.42,17.53,4.64,24.26,7.37A15.1,15.1,0,0,1,105.8,222.77Z"/><path class="cls-7" d="M84,217s-6.63-4.74-.09-10.61C88,202.59,105.4,220,112.86,217c1.06-.43,9.79-26.22,9.79-26.22l4,1.14s-3.46,27.86-8.37,32.09C113.7,227.9,99.77,228,84,217Z"/><path class="cls-13" d="M100.55,279.07c0,.26-.1.51-.14.73a53.92,53.92,0,0,1-1.54,5.3c-3.89-1.51-13.67-5.77-19.76-12.57-.07-3-.14-5.93-.19-8.88,0-1.43,0-2.89,0-4.36C80.59,262.73,85.67,269,100.55,279.07Z"/><path class="cls-5" d="M476.57,147.65H419.33c-15.35,0-63.59,2.28-68.05-2-9.92-9.5,19.42-12.07,23.44-9.24a15,15,0,0,1,10.93-27.18c11.61,1.77,17,15.49,26.84,21.86-2.54-5.87,3.84-12.8,10.21-12.24s11.24,6.54,12.48,12.82c3.66-2.21,7.76-4.38,12-3.76s7.94,5.49,5.83,9.2a126.5,126.5,0,0,1,29.66,3.26c2.61.61,5.71,1.84,6,4.49C489.2,149.13,480.76,148.55,476.57,147.65Z"/><path class="cls-5" d="M69.51,91.88H114c11.94,0,49.46,1.78,52.93-1.54,7.71-7.38-15.1-9.38-18.23-7.18A11.7,11.7,0,0,0,140.23,62c-9,1.38-13.2,12-20.88,17,2-4.56-3-10-7.94-9.52s-8.74,5.09-9.7,10c-2.85-1.72-6-3.4-9.33-2.92s-6.18,4.27-4.53,7.15a98.35,98.35,0,0,0-23.07,2.54c-2,.47-4.44,1.43-4.69,3.49C59.69,93,66.26,92.59,69.51,91.88Z"/><path class="cls-7" d="M455.83,371.24c1.29.89,13.12.05,13.23-.78s.28-1.68.38-2.38a.68.68,0,0,0,0-.19c-1-7.35-2.37-18.35-2.37-18.35s-5.63-.74-8,2.56c0,0,6.31,14.54,3.48,15.91a3.89,3.89,0,0,1-.4.18,22.31,22.31,0,0,1-6.14,1.74S454.55,370.35,455.83,371.24Z"/><path class="cls-18" d="M455.83,371.24c1.29.89,13.12.05,13.23-.78s.28-1.68.38-2.38l0-.19a23.49,23.49,0,0,1-7.3.3,22.31,22.31,0,0,1-6.14,1.74S454.55,370.35,455.83,371.24Z"/><path class="cls-7" d="M537.74,370.16c-1.28.89-13.11,0-13.22-.78s-.28-1.68-.38-2.38l0-.18c-.46-3.44-6-13.82-6-13.82s5.09-4.38,7.47-1.08c0,0,2.6,13.64,5.43,15l.39.18a22.37,22.37,0,0,0,6.15,1.74S539,369.27,537.74,370.16Z"/><path class="cls-18" d="M537.74,370.16c-1.28.89-13.11,0-13.22-.78s-.28-1.68-.38-2.38l0-.18a23.8,23.8,0,0,0,7.29.29,22.37,22.37,0,0,0,6.15,1.74S539,369.27,537.74,370.16Z"/><path class="cls-18" d="M538.27,354.1s-12.66,5.88-21.9,1.56c0,0-.24-.43-.66-1.24-.16-.29-.32-.63-.52-1-.9-1.83-2.25-4.7-3.72-8.43-.14-.33-.27-.67-.4-1-1.18-3-2.42-6.62-3.57-10.61-.09-.32-.18-.65-.28-1-1-3.51-1.89-7.35-2.63-11.45-.07-.37-.14-.75-.2-1.12-.33-1.92-.62-3.88-.85-5.88,0,0-.25-1.18-2.61-5.34l-.56-1c-.86-1.47-1.94-3.26-3.31-5.43-.49-.77-1-1.62-1.55-2.53l-.67-1.15c-2.19-3.79-4.65-8.45-6.95-13.12l-.54-1.09c-1.23-2.53-2.41-5-3.46-7.41l-.54-1.24a62,62,0,0,1-3.69-10.16s-2.11,4.94-6.18,15.29c-.21.54-8.39,21.89-10.5,27.56a4.29,4.29,0,0,0-.26,1.23,4.24,4.24,0,0,0,.06,1.12,3.6,3.6,0,0,0,.23.82L480,354.88a43.46,43.46,0,0,1-23.09-1s-.12-.3-.32-.86c-.12-.34-.28-.76-.47-1.27-.81-2.24-2.13-6.1-3.54-10.86q-.18-.6-.36-1.23c-.81-2.8-1.63-5.87-2.38-9.09-.11-.47-.22-.95-.32-1.44-.83-3.67-1.54-7.49-2-11.27l-.09-.84a81.58,81.58,0,0,1-.52-10.88s3.07-17.26,3.14-17.61c.81-4.16,1.72-8.65,2.75-13,.13-.54.26-1.09.38-1.62.81-3.42,1.67-6.74,2.55-9.72.11-.39.23-.77.34-1.14.6-2,1.23-3.82,1.85-5.4a17.79,17.79,0,0,1,3-5.45c2-2.12,6.75-2.84,12.33-2.68l1.58.07a83.09,83.09,0,0,1,16.76,2.86l1,.29c4.65,1.37,8.43,3,10.13,4.62a3.06,3.06,0,0,1,.92,1.32c.06.23,8.48,27.67,8.65,28.18,1.17,3.55,2.29,6.81,3.25,9.31.12.3.23.6.35.87,0,.09.07.18.1.26,1,2.57,2.63,7.06,4.52,12.43.1.29,8.93,24.94,9,25.25,1.39,3.7,2.75,7.15,4,10.11l.24.55C535.55,350,537.16,353.13,538.27,354.1Z"/><path class="cls-13" d="M505.94,266.75a26.3,26.3,0,0,1-18.33-.93c-5.76-2.44-12.19-4.57-19.68-4.17a12.86,12.86,0,0,1-10.07-4.06,17.79,17.79,0,0,1,3-5.45c2-2.12,6.75-2.84,12.33-2.68l1.58.07a83.09,83.09,0,0,1,16.76,2.86l1,.29c4.65,1.37,8.43,3,10.13,4.62a3.06,3.06,0,0,1,.92,1.32C503.6,258.85,504.55,262.12,505.94,266.75Z"/><path class="cls-7" d="M476.07,201.65c-.19,3-5,13.88-9.81,23.54-3.48,7-6.94,13.38-8.54,15.52-6.75,9-23.06,21.85-23.06,21.85s-4.34-2-3.44-6.17c0,0,15.9-18.71,18.12-22.47,1.16-2,3.65-7.36,6.13-13.07,2.28-5.18,4.56-10.6,5.9-13.9,2.47-6.07,8.82-13.84,13.05-9.77A5.68,5.68,0,0,1,476.07,201.65Z"/><path class="cls-7" d="M436.13,261s-1.45,1.46-3.05,3.46-5.08,6.44-6.83,7.14a3.86,3.86,0,0,1-.9,0l-.25,0a4.64,4.64,0,0,1-1.68-.57l-.15-.08a4.42,4.42,0,0,1-1.24-1.09l-.1-.12a6.34,6.34,0,0,1-.81-1.35s3.65-4.42,4.27-6.26c0,0-2.87,2.07-3.87,1.6l-.42-.64s2.84-2.58,4-3.85a10.62,10.62,0,0,1,7.21-3.05S436.63,258,436.13,261Z"/><path class="cls-11" d="M422,269.82l-.1-.12a58.6,58.6,0,0,0,4.78-6s.1,0,.08,0A18.52,18.52,0,0,1,422,269.82Z"/><path class="cls-11" d="M423.42,271l-.15-.08a59.66,59.66,0,0,0,4.79-6s.1,0,.07,0A18.32,18.32,0,0,1,423.42,271Z"/><path class="cls-11" d="M425.35,271.59l-.25,0a62.92,62.92,0,0,0,4.5-5.72s.1,0,.08,0A16.59,16.59,0,0,1,425.35,271.59Z"/><path class="cls-10" d="M476.07,201.65c-.19,3-6.24,17.12-11,26.78a10.23,10.23,0,0,1-10.79-4.83c2.28-5.17,5.77-13.35,7.11-16.65,2.47-6.07,8.82-13.84,13.05-9.77A5.68,5.68,0,0,1,476.07,201.65Z"/><rect class="cls-18" x="451.05" y="194.47" width="7.45" height="14.15" rx="1.17" transform="translate(-37.27 128.51) rotate(-15.46)"/><path class="cls-9" d="M505.87,259.61s-.73.22-1.91.48c-.54.11-1.2.23-1.9.34s-1.36.19-2.11.24a18.76,18.76,0,0,1-5.77-.34c-2.37-.57-4.76-1.48-7.23-2.22-.49-.15-1-.29-1.49-.42a19.88,19.88,0,0,0-7.83-.69,56.35,56.35,0,0,1-9.54.56c-.62,0-1.24-.06-1.84-.12a17.2,17.2,0,0,1-7.41-2.15,8.06,8.06,0,0,1-2.17-1.89A88,88,0,0,0,462.78,242a19.32,19.32,0,0,0,1.8-6.91s1.41-20,1.43-20.33c.1-1.45,2.44-15.39,3.61-17.72a1.5,1.5,0,0,1,.91-.69c2.26-.74,7.63.65,10.09.73,0,.1,0,.21-.05.31l0,.23c-.36,2.89.72,6.17-.34,9.57-1.39,4.51,8.56-4.78,12.35-8.68.24-.24.43-.45.62-.63l.49-.54.16-.2c8.44.84,10.72,2,10.75,2,1.17.82,1.43,2,1.25,3.74-.25,2.39-1.41,5.77-2.36,10.53-.72,3.52-1.55,7.72-2.26,12.68a53,53,0,0,0-.42,9.71A79.82,79.82,0,0,0,505.87,259.61Z"/><path class="cls-7" d="M481.52,213a152.31,152.31,0,0,1,11.1-14.51l1.19-1.43a5.06,5.06,0,0,1-1.72-.11.66.66,0,0,1-.39-.31s0,0,0,0c-.35-.85-.25-3.59-.11-5.65,0-.78.11-1.47.14-1.91,0-.05,0-.08,0-.11,0-.31.05-.47.05-.47a2.41,2.41,0,0,0,0-.38.91.91,0,0,0-.06-.35c-.41-1.59-2.76-1.19-5.06-.38-1.1.4-2.2.88-3.05,1.29-.5.24-.92.46-1.2.61l-.41.22s.06.25.12.67c.09.59.21,1.48.28,2.43,0,.35.05.7.06,1,0,1.51-.11,2.91-.76,3.25a2.11,2.11,0,0,1-1.06.14c0,.1,0,.21-.05.31l0,.23C479.91,201.7,478.91,217.07,481.52,213Z"/><path class="cls-11" d="M482,189.51s.06.25.12.67c.09.59.21,1.48.28,2.43,0,.35.05.7.06,1a8.75,8.75,0,0,0,4.48.37,7.24,7.24,0,0,0,1.05-.3,8,8,0,0,0,3.59-2.73c0-.78.11-1.47.14-1.91,0-.05,0-.08,0-.11,0-.31.05-.47.05-.47a2.41,2.41,0,0,0,0-.38.91.91,0,0,0-.06-.35c-.41-1.59-2.76-1.19-5.06-.38-1.1.4-2.2.88-3.05,1.29-.5.24-.92.46-1.2.61Z"/><path class="cls-19" d="M482.31,179.06c-.47-.23-1.33-.3-1.67.19a.14.14,0,0,0,.12.21c.23,0,.44-.12.67-.14a1.94,1.94,0,0,1,.72.11A.2.2,0,0,0,482.31,179.06Z"/><path class="cls-19" d="M489.14,179.63c-.26-.66-1.41-.72-1.9-.31a.18.18,0,0,0,.08.31,4.31,4.31,0,0,0,.88,0,3,3,0,0,1,.72.23A.19.19,0,0,0,489.14,179.63Z"/><path class="cls-18" d="M478.61,182.54a5.13,5.13,0,0,1-1-2.62c-.13-1.42.12-2.86,0-4.28-.22-2-1.23-4.19-.28-6a3.22,3.22,0,0,1,4.2-1.27c1.05.58,1.93,1.8,3.11,1.58a6,6,0,0,0,1.56-.81,2.78,2.78,0,0,1,2.87.24c1,.75,1.43,2.12,2.46,2.83s2.11.62,3,1.21a3.7,3.7,0,0,1,1.57,2.56c.44,2.4-.4,5.12-1.12,7.39-.12.36-.23,1.78-.76,1.8-.19,0-.26-.19-.33-.19l-.64,0c-3.31-.2-6.61-.43-9.91-.75-1.48-.14-2.82.25-4-.8A5.17,5.17,0,0,1,478.61,182.54Z"/><path class="cls-11" d="M479.09,182a1.78,1.78,0,0,0-2.89,0c-1.44,1.73,1,5.05,2.89,5.2A40.55,40.55,0,0,0,479.09,182Z"/><path class="cls-7" d="M478.29,183.5c0,1,0,1.83.09,2.61a1.64,1.64,0,0,1,0,.22.31.31,0,0,1,0,.09c0,.23.13.86.15,1a8.25,8.25,0,0,0,1.36,3.48,5,5,0,0,0,2.46,1.76,8,8,0,0,0,1.75.38,8.9,8.9,0,0,0,2.81-.09,6.47,6.47,0,0,0,4.76-3.82c.1-.21.18-.39.26-.58a13,13,0,0,0,.52-1.66c.07-.32.14-.66.21-1l.09-.62a2,2,0,0,1,0-.24.15.15,0,0,1,0-.06c.09-.78.18-1.54.25-2.27.26-2.53.3-4.71-.68-5.87-1.65-2-8.09-2.67-11.64-.74a5.85,5.85,0,0,0-1.12.78l-.2.2a1.51,1.51,0,0,0-.22.28,4.76,4.76,0,0,0-.65,1.92c-.06.3-.09.61-.13.93s-.06.86-.08,1.31,0,.84-.05,1.28v.15C478.29,183.09,478.28,183.3,478.29,183.5Z"/><path class="cls-7" d="M492.27,184s1.18-3.11,3-1.46-.71,6.34-3.54,6C491.76,188.5,491.37,185,492.27,184Z"/><path class="cls-11" d="M494.43,183.92a2.6,2.6,0,0,0-1.12.73,3.25,3.25,0,0,0-.83,1c-.05.13.13.21.21.13.24-.22.44-.49.66-.73a1.47,1.47,0,0,0,.54.42c.17.07.3-.14.22-.28a1.29,1.29,0,0,0-.44-.43,7.66,7.66,0,0,0,.89-.67A.13.13,0,0,0,494.43,183.92Z"/><path class="cls-18" d="M481.6,182.55s-.65.24-.55-.91.55-.89.55-.89.45,0,.38.9S481.6,182.55,481.6,182.55Z"/><path class="cls-18" d="M488.17,182.55s-.65.24-.55-.91.55-.89.55-.89.45,0,.38.9S488.17,182.55,488.17,182.55Z"/><path class="cls-11" d="M484.54,185.61c-.33-.05-1.08.15-1.23-.21a9.82,9.82,0,0,1,.47-2.34,30,30,0,0,0,.76-3.1c0-.05-.09-.09-.12,0a36.1,36.1,0,0,0-1.5,5.67.16.16,0,0,0,.15.2c.49,0,.95.1,1.43.1C484.66,185.9,484.71,185.63,484.54,185.61Z"/><path class="cls-12" d="M482.56,187.24a7.09,7.09,0,0,0,4.17,0,3.49,3.49,0,0,1-2.36,1.54C482.88,188.93,482.56,187.24,482.56,187.24Z"/><path class="cls-18" d="M482.46,178.71c-.45-.23-1.28-.29-1.61.18a.13.13,0,0,0,.12.2c.22,0,.42-.12.64-.13a1.86,1.86,0,0,1,.7.1A.19.19,0,0,0,482.46,178.71Z"/><path class="cls-18" d="M489.5,179c-.26-.63-1.36-.69-1.83-.3a.18.18,0,0,0,.07.3,4.93,4.93,0,0,0,.86,0,2.68,2.68,0,0,1,.68.21A.18.18,0,0,0,489.5,179Z"/><path class="cls-7" d="M455.17,212.77s-1.17-1.43-2.8-3-5.26-5.11-5.73-6.73a3.58,3.58,0,0,1,.07-.8,2.25,2.25,0,0,1,.05-.22,4.13,4.13,0,0,1,.66-1.44l.09-.12a3.77,3.77,0,0,1,1.08-1l.12-.08a6.26,6.26,0,0,1,1.27-.6s3.61,3.66,5.18,4.38c0,0-1.58-2.75-1.06-3.6l.6-.31s2,2.76,3.06,3.91a9.51,9.51,0,0,1,2.06,6.69S457.76,213.48,455.17,212.77Z"/><path class="cls-11" d="M448.59,199.41l.12-.08a51,51,0,0,0,4.93,4.81s0,.09-.05.07A16.71,16.71,0,0,1,448.59,199.41Z"/><path class="cls-11" d="M447.42,200.54l.09-.12a53.15,53.15,0,0,0,4.92,4.8s0,.09,0,.07A16.32,16.32,0,0,1,447.42,200.54Z"/><path class="cls-11" d="M446.71,202.2a2.25,2.25,0,0,1,.05-.22,55.71,55.71,0,0,0,4.68,4.53s0,.09,0,.06A14.94,14.94,0,0,1,446.71,202.2Z"/><path class="cls-10" d="M505.81,202.85c-.25,2.39-1.41,5.77-2.36,10.53-.72,3.52-1.55,7.72-2.26,12.68a53,53,0,0,0-.42,9.71c-1,.69-2.17,1.35-3.37,2C484,244.91,479.19,239,479.19,239l9.37-9.74,11.71-20.48Z"/><path class="cls-7" d="M501.83,222a45.64,45.64,0,0,1-3.52,5.16c-7.68,9.89-16.64,13.34-20.84,11.38-6.76-3.17-18.62-19.72-21.8-24.5-1.11-1.66-1.77-2.7-1.77-2.7s2.18-3.7,5.8-2.5c0,0,.65.69,1.7,1.77,4.06,4.2,17.63,14.71,20.11,16.55.82.61,2.9-2.69,5.54-7.25,5-8.63,12-21.77,16.26-21.18C506.27,199.11,512.34,204.37,501.83,222Z"/><path class="cls-9" d="M501.83,222a45.64,45.64,0,0,1-3.52,5.16c-6.42-1.86-9.69-5.07-11.26-7.25,5-8.63,12-21.77,16.26-21.18C506.27,199.11,512.34,204.37,501.83,222Z"/><path class="cls-3" d="M62.67,181.47c5.59-3.42,9-8,9-13,0-10.61-15.29-19.21-34.15-19.21s-34.15,8.6-34.15,19.21,15.29,19.2,34.15,19.2a55.66,55.66,0,0,0,16.84-2.5C58.66,192.46,68,193,68,193,63.42,190.25,62.71,184.49,62.67,181.47Z"/><path class="cls-12" d="M20.87,169a2.73,2.73,0,0,1,.18-1,2.38,2.38,0,0,1,.51-.8,2.48,2.48,0,0,1,.8-.53,2.68,2.68,0,0,1,1-.2,2.71,2.71,0,0,1,1.06.2,2.48,2.48,0,0,1,.8.53,2.38,2.38,0,0,1,.51.8,2.73,2.73,0,0,1,.18,1,2.79,2.79,0,0,1-.18,1,2.48,2.48,0,0,1-.51.8,2.2,2.2,0,0,1-.8.53,2.71,2.71,0,0,1-1.06.19,2.68,2.68,0,0,1-1-.19,2.2,2.2,0,0,1-.8-.53,2.48,2.48,0,0,1-.51-.8A2.79,2.79,0,0,1,20.87,169Z"/><path class="cls-12" d="M35,169a2.73,2.73,0,0,1,.18-1,2.38,2.38,0,0,1,.51-.8,2.48,2.48,0,0,1,.8-.53,2.68,2.68,0,0,1,1-.2,2.71,2.71,0,0,1,1.06.2A2.3,2.3,0,0,1,39.88,168a2.73,2.73,0,0,1,.18,1,2.79,2.79,0,0,1-.18,1,2.48,2.48,0,0,1-.51.8,2.12,2.12,0,0,1-.8.53,2.71,2.71,0,0,1-1.06.19,2.68,2.68,0,0,1-1-.19,2.2,2.2,0,0,1-.8-.53,2.48,2.48,0,0,1-.51-.8A2.79,2.79,0,0,1,35,169Z"/><path class="cls-12" d="M49.1,169a2.54,2.54,0,0,1,.18-1,2.38,2.38,0,0,1,.51-.8,2.34,2.34,0,0,1,.79-.53,2.69,2.69,0,0,1,1.05-.2,2.78,2.78,0,0,1,1.06.2,2.44,2.44,0,0,1,.79.53,2.38,2.38,0,0,1,.51.8,2.73,2.73,0,0,1,.18,1,2.79,2.79,0,0,1-.18,1,2.48,2.48,0,0,1-.51.8,2.16,2.16,0,0,1-.79.53,2.78,2.78,0,0,1-1.06.19,2.69,2.69,0,0,1-1.05-.19,2.08,2.08,0,0,1-.79-.53,2.48,2.48,0,0,1-.51-.8A2.59,2.59,0,0,1,49.1,169Z"/><path class="cls-20" d="M202.73,247.48a14.73,14.73,0,0,1-15.81-14.66q0-3.31.1-6.4a92.79,92.79,0,0,1,2.39-18.36,68.08,68.08,0,0,1,6-15.95,91.51,91.51,0,0,1,10-15q4.55-5.88,8.36-11.43a78.94,78.94,0,0,0,6.45-11.1,55,55,0,0,0,3.94-11.37A41.85,41.85,0,0,0,225,130.8q-2.33-30.65-22.14-29.14a16.59,16.59,0,0,0-7,2.28,19,19,0,0,0-6.28,6.11,31.74,31.74,0,0,0-4.22,10.1l0,.12a20.37,20.37,0,0,1-18.24,15.48l-12.53.94a19.78,19.78,0,0,1-21.05-23.09,72,72,0,0,1,2.22-9.07,64.26,64.26,0,0,1,13.74-24.48,63.34,63.34,0,0,1,21.9-15.41A87.79,87.79,0,0,1,199.54,58a89.36,89.36,0,0,1,30.55,2.49A59.09,59.09,0,0,1,269.65,94.2q6,13,7.29,30.45a67.36,67.36,0,0,1-1.66,21.91A88.23,88.23,0,0,1,268,165.47a129.84,129.84,0,0,1-11,17.45c-4.25,5.67-8.69,11.39-13.09,17.32a57,57,0,0,0-6,10,49.74,49.74,0,0,0-3.47,10.32A68.43,68.43,0,0,0,233,232v.12a14.75,14.75,0,0,1-13.58,14.11Zm-15.65,57.66a30.29,30.29,0,0,1,1.17-11.35,26.45,26.45,0,0,1,5-9.33,26.87,26.87,0,0,1,8.45-6.64,29.75,29.75,0,0,1,11.48-3.08,30.32,30.32,0,0,1,12,1.3,27,27,0,0,1,9.35,5.29,26.49,26.49,0,0,1,6.36,8.47,32.12,32.12,0,0,1,1.7,22.39,27.55,27.55,0,0,1-5,9.42,25,25,0,0,1-8.44,6.64,31.53,31.53,0,0,1-11.68,3A31.07,31.07,0,0,1,205.67,330a25,25,0,0,1-9.36-5.29,27.61,27.61,0,0,1-6.37-8.56A30.18,30.18,0,0,1,187.08,305.14Z"/><path class="cls-21" d="M197,247.48a14.73,14.73,0,0,1-15.81-14.66q0-3.31.09-6.4a92.77,92.77,0,0,1,2.4-18.36,68.06,68.06,0,0,1,6-15.95,92.24,92.24,0,0,1,10-15q4.53-5.88,8.36-11.43a78.94,78.94,0,0,0,6.45-11.1,55,55,0,0,0,3.94-11.37,42.18,42.18,0,0,0,.81-12.43q-2.32-30.65-22.14-29.14a16.68,16.68,0,0,0-7,2.28,18.93,18.93,0,0,0-6.27,6.11,31.52,31.52,0,0,0-4.22,10.1l0,.12a20.37,20.37,0,0,1-18.24,15.48l-12.53.94a19.79,19.79,0,0,1-21.06-23.09,72,72,0,0,1,2.23-9.07,64.13,64.13,0,0,1,13.74-24.48,63.34,63.34,0,0,1,21.9-15.41A87.79,87.79,0,0,1,193.78,58a89.4,89.4,0,0,1,30.55,2.49A59.14,59.14,0,0,1,263.89,94.2q6,13,7.29,30.45a67.36,67.36,0,0,1-1.66,21.91,87.73,87.73,0,0,1-7.25,18.91,127.87,127.87,0,0,1-11,17.45c-4.25,5.67-8.68,11.39-13.08,17.32a57.11,57.11,0,0,0-6,10,49.71,49.71,0,0,0-3.46,10.32A68.41,68.41,0,0,0,227.26,232v.12a14.77,14.77,0,0,1-13.58,14.11Zm-15.66,57.66a30.49,30.49,0,0,1,1.17-11.35,26.14,26.14,0,0,1,13.47-16,29.75,29.75,0,0,1,11.48-3.08,30.32,30.32,0,0,1,12,1.3,27.09,27.09,0,0,1,9.35,5.29,26.78,26.78,0,0,1,6.36,8.47,32.12,32.12,0,0,1,1.7,22.39,27.55,27.55,0,0,1-5,9.42,25,25,0,0,1-8.45,6.64,31.43,31.43,0,0,1-11.68,3A31.1,31.1,0,0,1,199.9,330a25,25,0,0,1-9.35-5.29,27.45,27.45,0,0,1-6.37-8.56A30.39,30.39,0,0,1,181.31,305.14Z"/><path class="cls-22" d="M162.4,76.63c.75-1-.73-2.43-1.73-1.73-5.55,3.84-10.34,9.38-14.7,14.5C142.08,94,138.6,99,137.1,104.91c-1.25,4.91-1.23,10.53,1.53,15,1.79,2.86,5.21,5.84,8.68,4.28a.45.45,0,0,0,.09-.7c-4-3.16-7-5.19-7.48-10.82-.48-5.15,1.39-10.19,4-14.51C149,90,156.77,84.21,162.4,76.63Z"/><path class="cls-22" d="M202.56,317.19c-6.27-3.81-10.45-8.25-10.57-16.05-.13-7.63,3.67-13.56,9.5-18.05a.68.68,0,0,0-.52-1.24c-16.49,3.83-16.66,35.51,1,37.64C203.22,319.65,203.52,317.78,202.56,317.19Z"/><path class="cls-3" d="M526.24,114.69a29.55,29.55,0,0,0-8,51,13.39,13.39,0,0,1-3.89,13.52s9-1.38,11.77-9.09a29.56,29.56,0,1,0,.16-55.4Z"/><path class="cls-12" d="M557.28,133.23H515.66a1,1,0,0,1,0-2h41.62a1,1,0,0,1,0,2Z"/><path class="cls-12" d="M557.28,140.12H515.66a1,1,0,0,1,0-2h41.62a1,1,0,0,1,0,2Z"/><path class="cls-12" d="M557.28,147H515.66a1,1,0,0,1,0-2h41.62a1,1,0,0,1,0,2Z"/><path class="cls-12" d="M540.91,153.91H515.66a1,1,0,0,1,0-2h25.25a1,1,0,0,1,0,2Z"/><path class="cls-20" d="M361.68,304.1a31.13,31.13,0,0,1,3.27-11,26.1,26.1,0,0,1,6.66-8.33,26.81,26.81,0,0,1,9.53-5,30.46,30.46,0,0,1,12.05-.89,30,30,0,0,1,11.37,3.49,27,27,0,0,1,8.21,6.93,26.4,26.4,0,0,1,4.67,9.59,31,31,0,0,1,.76,11.48A30.48,30.48,0,0,1,415,321.31a26.4,26.4,0,0,1-6.65,8.24,25.87,25.87,0,0,1-9.53,4.87,31,31,0,0,1-11.85.81,31.68,31.68,0,0,1-11.56-3.41,25.76,25.76,0,0,1-8.22-6.84,26.67,26.67,0,0,1-4.69-9.5A30.43,30.43,0,0,1,361.68,304.1Zm34.77-53.73a22.35,22.35,0,0,1-19.81-24L387.61,86a22.36,22.36,0,0,1,24.75-20.47l9.16,1a22.36,22.36,0,0,1,19.65,25.4L421,231.36A22.34,22.34,0,0,1,396.45,250.37Z"/><path class="cls-21" d="M356.79,304.1a31.13,31.13,0,0,1,3.27-11,26.23,26.23,0,0,1,6.66-8.33,26.81,26.81,0,0,1,9.53-5,30.46,30.46,0,0,1,12.05-.89,29.9,29.9,0,0,1,11.37,3.49,26.89,26.89,0,0,1,8.21,6.93,26.24,26.24,0,0,1,4.67,9.59,31,31,0,0,1,.76,11.48,30.28,30.28,0,0,1-3.25,10.93,26.4,26.4,0,0,1-6.65,8.24,25.79,25.79,0,0,1-9.53,4.87,31,31,0,0,1-11.84.81,31.73,31.73,0,0,1-11.57-3.41,25.76,25.76,0,0,1-8.22-6.84,26.49,26.49,0,0,1-4.68-9.5A30.43,30.43,0,0,1,356.79,304.1Zm34.77-53.73a22.35,22.35,0,0,1-19.81-24L382.73,86a22.34,22.34,0,0,1,24.74-20.47l9.16,1a22.35,22.35,0,0,1,19.65,25.4L416.14,231.36A22.34,22.34,0,0,1,391.56,250.37Z"/><path class="cls-22" d="M380.66,323.67c-6.69-4.26-11.6-10.89-11.1-19.18s6-13,11.7-18.05c.24-.22.06-.74-.29-.69-8.64,1.12-14.29,10.67-14.84,18.74a22.48,22.48,0,0,0,13.37,21.93C381.13,327.11,382,324.54,380.66,323.67Z"/><path class="cls-22" d="M403.25,73.93C389.66,75.58,390.08,91.73,389,102l-2.79,25.71c-.94,8.81-2.55,17.83-2.35,26.7a.64.64,0,0,0,1.25.17c3.23-13.44,3.51-28,5-41.7.77-7.25,1.44-14.52,2.31-21.76.95-8,3.63-13,11.17-16.21A.55.55,0,0,0,403.25,73.93Z"/><path class="cls-7" d="M297.21,363.24a23.33,23.33,0,0,1,1,3.72l.12.64c.13.69.25,1.47.37,2.35s11.72,1.62,13,.75-.2-1.28-.2-1.28a17.92,17.92,0,0,1-6.41-1.88c-3.39-2.21-3.63-15.13-3.63-15.13C297.61,342.42,290.46,332.63,297.21,363.24Z"/><path class="cls-7" d="M245.29,370.55c1.29.89,13.15.05,13.27-.78s.28-1.68.38-2.39c0-.07,0-.12,0-.18.46-3.45,1.17-9.67,1.17-9.67s-3.16-3.43-5.54-.12c0,0,.29,8.53-2.55,9.9l-.4.19a22.79,22.79,0,0,1-6.16,1.74S244,369.66,245.29,370.55Z"/><path class="cls-8" d="M303.3,359.4s-3.46,2.57-8.88.52c0,0-5.13-23.17-9.49-43.57-.51-2.38-8.38-23.22-11.73-32.23-.76-2-1.28-3.46-1.44-3.95a2.32,2.32,0,0,0-1.42-1.49c-.8-.27-1.79-.06-2.21,2.23-.07.4-.2,1.47-.36,3.06-1.51,14.76-6.44,75-6.44,75s-4.54.87-7.8-.71c0,0-3.54-45.7-4-75.54,0-2-.05-3.92-.05-5.75,0-5.46.14-9.95.43-12.9l37.28-1.48s9.56,47.24,10.34,52C299.07,323.54,303.3,359.4,303.3,359.4Z"/><path class="cls-8" d="M298.18,367l.12.64c.13.69.25,1.47.37,2.35s11.72,1.62,13,.75-.2-1.28-.2-1.28a17.92,17.92,0,0,1-6.41-1.88A14.27,14.27,0,0,1,298.18,367Z"/><path class="cls-8" d="M245.29,370.55c1.29.89,13.15.05,13.27-.78s.28-1.68.38-2.39c0-.07,0-.12,0-.18a23.6,23.6,0,0,1-7.32.3,22.79,22.79,0,0,1-6.16,1.74S244,369.66,245.29,370.55Z"/><path class="cls-13" d="M291.45,283.3a130.63,130.63,0,0,1-18.25.82c-.76-2-1.28-3.46-1.44-3.95a2.32,2.32,0,0,0-1.42-1.49c-.8-.27-1.79-.06-2.21,2.23-.07.4-.2,1.47-.36,3.06-7.4-.28-14.1-.87-18.21-1.28,0-2-.05-3.92-.05-5.75,0-5.46.14-9.95.43-12.9l37-1.47.88,2.84C288.57,269.12,290,275.88,291.45,283.3Z"/><path class="cls-7" d="M278.51,220.71c-2.1-4.09,55.54-26.64,27.06-38.87-9.28-4-27.48-7.6-27.48-7.6s-2.84,3.22-.6,6.3c0,0,19.26,6.49,22.44,8.78s-17.87,10.45-27.2,12.19C267,202.59,279.19,222,278.51,220.71Z"/><path class="cls-7" d="M279.81,174.67s-1.75-.6-3.83-1.58-6.65-3.16-8.33-3a4,4,0,0,0-.73.35,1,1,0,0,0-.19.12,4.25,4.25,0,0,0-1.13,1.12l-.08.13a4,4,0,0,0-.57,1.37l0,.14a6,6,0,0,0-.12,1.4s4.7,2.11,5.92,3.34c0,0-3.13-.52-3.75.26l-.08.67s3.31,1,4.74,1.52a9.51,9.51,0,0,0,7-.41S281.38,176.86,279.81,174.67Z"/><path class="cls-8" d="M255.12,186.3a2.2,2.2,0,0,1-.21-.8,21.3,21.3,0,0,1,.05-5.17,9.64,9.64,0,0,1,.67-2.91,8,8,0,0,1,4-3.55,21,21,0,0,1,11.14-2,6.49,6.49,0,0,1,2.54.65,2.8,2.8,0,0,1,1.5,2,4.74,4.74,0,0,1-.24,1.66c-.95,3.71.14,7.37-1.14,10.93-.4,1.09-.47,1.25-1.11,1.22-3.4-.21-6.8-.47-10.19-.8a46.8,46.8,0,0,1-5.91-.75C255.6,186.66,255.29,186.58,255.12,186.3Z"/><path class="cls-11" d="M272.68,185.21a1.92,1.92,0,0,1,3.1,0c1.55,1.86-1.09,5.42-3.1,5.57A44.49,44.49,0,0,1,272.68,185.21Z"/><path class="cls-7" d="M245.4,206.16c.94,2.23,4.42,10.81,5.55,17.77.6,3.72,2.89,16.46,2.89,16.46,13.13,3.6,27.56,0,27.56,0s7.93-33.26,1.83-37.19a13.72,13.72,0,0,0-4.87-1.38,64,64,0,0,0-7.88-.52l-.18-1.91s-.44-4.74-.44-4.74A13.55,13.55,0,0,1,259,192a38,38,0,0,1,.45,4.36c.06,1,.1,1.92.12,2.74,0,1.44.05,2.48.05,2.48a30.64,30.64,0,0,0-5.1.52,27.64,27.64,0,0,0-8.8,3.19A.72.72,0,0,0,245.4,206.16Z"/><path class="cls-11" d="M259,192c1.69,7.66,9.39,7.13,11.2,6.12l-.32-3.46A13.51,13.51,0,0,1,259,192Z"/><path class="cls-7" d="M272.33,179.83c1,1.07,1.11,3.48,1.2,6.13.26,8-2.15,10.56-6.26,11s-8.4-1.14-9.29-8.6c-.44-3.72-.91-7.17.44-8.78C260.45,177.18,269.17,176.55,272.33,179.83Z"/><path class="cls-7" d="M258.55,187.29s-1.25-3.33-3.24-1.57.76,6.8,3.79,6.43C259.1,192.15,259.52,188.43,258.55,187.29Z"/><path class="cls-7" d="M247.85,205.26a5.11,5.11,0,0,0-3.59,2.32c-2.54,3.83-7.9,32.2-7.91,37.91,0,10.1,4.75,28.08,4.75,28.08s4.21.91,5.79-2.56c0,0-1.3-22-.87-25.88s4.2-19.34,5.92-25.83C253.45,213.61,253.09,204.62,247.85,205.26Z"/><path class="cls-11" d="M256.24,187.24a2.72,2.72,0,0,1,1.2.78,3.36,3.36,0,0,1,.89,1.13c.05.14-.14.22-.23.13-.25-.24-.46-.52-.7-.78a1.71,1.71,0,0,1-.58.46c-.19.07-.32-.16-.24-.31a1.41,1.41,0,0,1,.48-.46,6.33,6.33,0,0,1-1-.72A.14.14,0,0,1,256.24,187.24Z"/><path class="cls-8" d="M270,185.77s.69.26.59-1-.59-1-.59-1-.49,0-.41,1S270,185.77,270,185.77Z"/><path class="cls-8" d="M263,185.77s.7.26.59-1-.59-1-.59-1-.48,0-.41,1S263,185.77,263,185.77Z"/><path class="cls-11" d="M266.84,189.05c.35-.05,1.16.16,1.32-.22a10.16,10.16,0,0,0-.5-2.51,30,30,0,0,1-.81-3.32c0-.06.09-.1.12,0a38.84,38.84,0,0,1,1.61,6.08.18.18,0,0,1-.17.22c-.51,0-1,.1-1.53.1C266.71,189.36,266.66,189.08,266.84,189.05Z"/><path class="cls-8" d="M269.23,182c.5-.25,1.43-.32,1.8.2a.16.16,0,0,1-.14.23c-.24,0-.46-.13-.71-.15a2.06,2.06,0,0,0-.78.12C269.17,182.5,269,182.14,269.23,182Z"/><path class="cls-8" d="M261.91,182.64c.28-.71,1.52-.77,2-.34a.2.2,0,0,1-.08.33,4.4,4.4,0,0,1-1,0,3.36,3.36,0,0,0-.76.24C262,182.93,261.85,182.78,261.91,182.64Z"/><path class="cls-9" d="M292.25,279.68c1,5.67-45.32-2-45.06-4.54,1.69-16.76,3.15-43.95,3.15-43.95s0-1.41,0-3.72c0,.21,0,.32,0,.32l-2,8.57a18.18,18.18,0,0,1-12-3.26s2.42-10.57,5.22-20.39c2-6.94,5.68-9.34,7.37-10.09a4.24,4.24,0,0,1,.6-.23l.29-.09a54.49,54.49,0,0,1,7.62-.91s-1.31,7.1,7.19,7.78c9.59.77,9.07-8.18,9.07-8.18s18.76-6,21.87-8.08a43.36,43.36,0,0,1,6.77,13.28s-11.62,5.82-17.16,13c0,1.07-.07,1.73-.07,1.73S286.14,244.06,292.25,279.68Z"/><path class="cls-7" d="M240.91,271.65s.25,1.83.32,4.13.17,7.36,1,8.81a4,4,0,0,0,.64.49,1.18,1.18,0,0,0,.19.11,4.38,4.38,0,0,0,1.52.5l.15,0a4.05,4.05,0,0,0,1.48-.11l.13,0a5.93,5.93,0,0,0,1.31-.52s-.23-5.15.32-6.8c0,0,.94,3,1.91,3.24l.64-.23s-.64-3.39-.78-4.92a9.57,9.57,0,0,0-3.53-6.08S242.15,269.26,240.91,271.65Z"/><path class="cls-11" d="M246.25,285.6l.13,0a51.09,51.09,0,0,1-.17-6.9s-.07-.06-.08,0A16.46,16.46,0,0,0,246.25,285.6Z"/><path class="cls-11" d="M244.62,285.69l.15,0a51.17,51.17,0,0,1-.18-6.9,0,0,0,0,0-.08,0A16.34,16.34,0,0,0,244.62,285.69Z"/><path class="cls-11" d="M242.91,285.08a1.18,1.18,0,0,0,.19.11,56.75,56.75,0,0,1-.14-6.53s-.06-.06-.07,0A15,15,0,0,0,242.91,285.08Z"/><path class="cls-11" d="M269.26,191.37c-.75,0-1.45.35-2.22.39a7.34,7.34,0,0,0-2,0c.46.55,1.48.51,2.12.48a3.63,3.63,0,0,0,2.17-.59A.13.13,0,0,0,269.26,191.37Z"/><path class="cls-10" d="M302.35,206.19s-11.62,5.82-17.16,13l-1.09-7.66Z"/><path class="cls-7" d="M362.57,369.44a11.85,11.85,0,0,1-4.73-2.32c-.76-.59-1.39-1.15-1.49-1.59a48.53,48.53,0,0,1-.22-7.66c.51-25.21,6.26-50.13,3.84-75.42-.54-5.69-1.35-11.49-4-16.55a4,4,0,0,0-1.09-1.44,3.48,3.48,0,0,0-2.73-.33,11.37,11.37,0,0,0-7.52,6.34,22.57,22.57,0,0,0-1.87,9.93,45.17,45.17,0,0,0,2.29,14.07,33.68,33.68,0,0,1,2,7c.26,2.73-.7,4.87-1.11,7.45-.61,3.81-.26,8.11-.22,12,.12,14,3,27.47,5.62,41.15.09.8.17,2,.2,3.53,0,.76,0,1.61,0,2.56s9.55,3.38,11.06,2.67S362.57,369.44,362.57,369.44Z"/><path class="cls-18" d="M351.5,368.16c0,.88,9.55,3.38,11.06,2.67s0-1.39,0-1.39a11.85,11.85,0,0,1-4.73-2.32,13.92,13.92,0,0,1-6.32-1.52C351.53,366.36,351.53,367.21,351.5,368.16Z"/><path class="cls-7" d="M335.5,369.51a11.8,11.8,0,0,1-4.24-3.12,4.13,4.13,0,0,1-1.18-1.83,48.63,48.63,0,0,1,1.16-7.58c5-24.71,15.13-48.2,17.29-73.51.48-5.69.72-11.54-1-17a3.74,3.74,0,0,0-.81-1.6,3.43,3.43,0,0,0-2.62-.82,11.29,11.29,0,0,0-8.53,4.89,22.51,22.51,0,0,0-3.63,9.43,45.48,45.48,0,0,0-.27,14.26,33.13,33.13,0,0,1,.68,7.28c-.23,2.73-1.56,4.66-2.43,7.12-1.28,3.64-1.7,7.93-2.36,11.73-2.39,13.82-1.93,27.57-1.84,41.49-.06.81-.18,2-.44,3.51-.12.75-.27,1.59-.48,2.52s8.79,5,10.4,4.61S335.5,369.51,335.5,369.51Z"/><path class="cls-18" d="M324.83,366.28c-.17.86,8.79,5,10.4,4.61s.27-1.38.27-1.38a11.8,11.8,0,0,1-4.24-3.12,13.89,13.89,0,0,1-5.95-2.63C325.19,364.51,325,365.35,324.83,366.28Z"/><path class="cls-7" d="M361.1,228.62c-.72,2.38.7,15,.7,15s-13.19,4.58-21.87-.92c0,0-2.14-16.33-4.64-22.79l.3-11.24s5.31-1,7-3a1.07,1.07,0,0,0,.14-.16c.87-1.22.83-4.87.65-7.65-.12-1.93-.31-3.44-.31-3.44s9.24,3.28,9.38,4.94c0,0,0,.06,0,.18,0,.3-.07.93-.08,1.7-.05,1.94.13,4.71,1.45,4.85a5.44,5.44,0,0,0,1.06-.1c1.82-.12,3.6-.12,3.6-.12s3.7,9.13,6.53,12.76S361.81,226.23,361.1,228.62Z"/><path class="cls-9" d="M368.54,306.43c-2.67-8.68-1.89-18.5-2.75-27.47-.87-5.22-.76-10.63-1.4-15.89q-1-8.55-1.86-17.15c-.3-3.1-.79-6.4-.91-9.67a24.86,24.86,0,0,1,.83-8.05c.54-1.82,3.32-3.83,3.39-6.28a3.73,3.73,0,0,0-.9-2.48,34.26,34.26,0,0,1-4.17-7.51,17.83,17.83,0,0,0-1.72-3.7c-.64-.85-.76-2.47-1.9-2.84a2.38,2.38,0,0,0-1.32.07l-1.35.31a3,3,0,0,0-1.31.39,9.53,9.53,0,0,1-7.13,2.11,6.16,6.16,0,0,1-3.65-2,6.39,6.39,0,0,0-3.17.83c-1.12.63-2,1.67-3.06,2.3-.56.31-.59.34-.62,1,0,.47-.23,8.61-.27,10.33-.06,2.1,1.8,5.18,2.24,7.34a18.68,18.68,0,0,1,.37,5.32c-.31,4.12-.13,9.22-2,13s-3.85,6.47-4.74,10.73c-1.62,7.78-1.07,15.83-2.43,23.64q-.27,1.56-.66,3.12c-2,7.74-6.3,14.63-9.32,22a2,2,0,0,0-.22,1.26c.3,1.19,2,1,3.21.59a13.94,13.94,0,0,1,8.72.58c2.47.87,4.73,2.69,7.39,3.06,3.52.49,6.82-1.67,10.32-2.32,4.85-.91,11.15.5,15.63,2.39C367.93,313.21,369.9,310.85,368.54,306.43Z"/><path class="cls-7" d="M396.56,213.56s2.2-1.9,4.41-3.78c1.33-1.13,4.56-3.25,5-4.46a2.91,2.91,0,0,0,0-.61,1.22,1.22,0,0,0,0-.17,3,3,0,0,0-.42-1.13l0-.1a3.13,3.13,0,0,0-.77-.83l-.09-.06a3.91,3.91,0,0,0-.93-.53,24.4,24.4,0,0,1-4.19,3s1.36-2,1-2.67l-.45-.28s-1.7,2-2.54,2.8a8.44,8.44,0,0,0-2.29,4.85S394.55,214,396.56,213.56Z"/><path class="cls-11" d="M404.7,202.48l-.09-.06a39.82,39.82,0,0,1-4,3.37s0,.07,0,.05A12.49,12.49,0,0,0,404.7,202.48Z"/><path class="cls-11" d="M405.52,203.41l0-.1a39.4,39.4,0,0,1-4,3.37s0,.07,0,.06A12.54,12.54,0,0,0,405.52,203.41Z"/><path class="cls-11" d="M406,204.71a1.22,1.22,0,0,0,0-.17,43.35,43.35,0,0,1-3.81,3.18s0,.06,0,.05A11.41,11.41,0,0,0,406,204.71Z"/><path class="cls-7" d="M357.81,192.79a4.36,4.36,0,0,1,0,.51c-.38,4.14-2,5.8-5.52,6.29-2.64.36-8.32-.53-9.71-7.78-.7-3.63-.89-6.7-.19-8.65,1.48-4.08,9.16-8.74,13.24-3.8.93,1.13,1.75,6.4,2,9A34.23,34.23,0,0,1,357.81,192.79Z"/><path class="cls-18" d="M324,225.8c-.18-2.78,1.28-5.36,2.34-7.93s1.69-5.72.07-8a17.23,17.23,0,0,1-1.94-2.43A4.68,4.68,0,0,1,325,203a45.82,45.82,0,0,1,3-3.58,13.06,13.06,0,0,0,2.74-7.92c0-2.32-.52-4.94.95-6.73.92-1.1,2.39-1.58,3.44-2.55,1.47-1.36,1.95-3.33,3.3-4.79a11.13,11.13,0,0,1,4.86-3,14.49,14.49,0,0,1,8.69.23c2.45.78,5,3,4.7,5.78a.62.62,0,0,1-.34.57c-.38.26-.86.44-1.2.71a2.4,2.4,0,0,0-.65,1.31,28.94,28.94,0,0,1-.46,3.12,1.52,1.52,0,0,1-1.28,1c-.58,0-1.1-.43-1.68-.41a1.7,1.7,0,0,0-1.08.56,3.56,3.56,0,0,0-1,2.68,4.06,4.06,0,0,0,1.21,2.56c3.46,3.41-2.09,7.5-1.89,11a17.27,17.27,0,0,0,.45,2.23,6.76,6.76,0,0,1-.48,4,25.45,25.45,0,0,0-1.26,2.57c-.52,1.64,0,3.41.4,5.09a15.78,15.78,0,0,1-1,9.27,11.4,11.4,0,0,1-2.87,4.12,8.25,8.25,0,0,1-4.25,2.19,19.82,19.82,0,0,1-4.77.62,16.77,16.77,0,0,1-5-.84A8.55,8.55,0,0,1,324,225.8Z"/><path class="cls-7" d="M356.92,184.94a8.68,8.68,0,0,0,2.06,3.91c1.35,1.41-2.75,2.53-2.75,2.53S356.27,185.71,356.92,184.94Z"/><path class="cls-11" d="M351.92,189.64a2,2,0,0,0-.9-1,.26.26,0,0,0-.26.45,2,2,0,0,1,.6.79,3.12,3.12,0,0,0-.67.23c-.25.13-.08.54.18.45a5.94,5.94,0,0,1,.7-.17,4.71,4.71,0,0,0,.42.91c.13.19.52.14.49-.13A5.32,5.32,0,0,0,351.92,189.64Z"/><path class="cls-11" d="M357.81,192.79a4.36,4.36,0,0,1,0,.51l-.21,0c-.44,0-1.16.1-1.45-.31a.07.07,0,0,1,0-.11c.37-.17.83,0,1.24,0A2,2,0,0,0,357.81,192.79Z"/><path class="cls-11" d="M352.38,199.52c0,.3-.07.93-.08,1.7a3.36,3.36,0,0,1-1.52-2.31A3.8,3.8,0,0,0,352.38,199.52Z"/><path class="cls-10" d="M362.45,228.2a24.86,24.86,0,0,0-.83,8.05c-4.3-6.66-3.79-16.59-3.79-16.59,2.53-.61,5.48.64,8,2.26C365.77,224.37,363,226.38,362.45,228.2Z"/><path class="cls-7" d="M354.63,214.48s-2.65-10.28,5.2-8.4c7.61,1.82,11.52,19.21,18.91,19.59,1.05.06,18.32-18.07,18.32-18.07l2.88,2.5S386.27,232,380.53,233.62C375.2,235.12,363.56,229.79,354.63,214.48Z"/><path class="cls-9" d="M355.07,205.64a10.21,10.21,0,0,1,7.22.52c3.84,1.76,3.9,2.54,7.35,2.37,0,0-9.95,12.75-16.41,12.25C353.23,220.78,350.84,211.64,355.07,205.64Z"/><path class="cls-10" d="M360.62,246c-3.52,1.36-7,2.68-10.77,3s-8.43.17-11.29-2.42a.5.5,0,0,0-.7.7,8.73,8.73,0,0,0,5.56,2.76l0,.09a5.93,5.93,0,0,0-3.49,3.7c-.49,1.43-.15,2.92-.52,4.37a48.35,48.35,0,0,1-1.85,4.56,16.3,16.3,0,0,0-.92,8.84c.8,3.86,2.75,7,1.54,11.07a.25.25,0,0,0,.45.19,8,8,0,0,0,.7-6c-.78-3.59-2.26-6.64-1.58-10.42.51-2.82,2.1-5.19,2.8-7.92.34-1.34.05-2.73.4-4.06a5.44,5.44,0,0,1,2.05-2.91,10.61,10.61,0,0,0,1.22,6.83c1.3,2.66.66,4.58-.12,7.26a12.44,12.44,0,0,0-.49,5c.48,4,3.45,7,3.82,11,.41,4.39-1,8.69-.58,13.09a.24.24,0,0,0,.47,0c.38-4.06,1.46-8.14,1.35-12.24-.1-3.92-2.22-6.5-3.37-10.09a10.91,10.91,0,0,1,0-6.45c.48-1.68,1.27-3.32,1.14-5.11-.1-1.45-.91-2.5-1.51-3.77a10.77,10.77,0,0,1-.71-6.43.39.39,0,0,0,.13-.48,28.71,28.71,0,0,0,4.68.11,20.73,20.73,0,0,0,11.79-3.93C361,246.26,360.81,246,360.62,246Z"/></g></g></g></svg>